{"glyphs":{"x":{"ha":1358,"x_min":0,"x_max":1297,"o":"m 381 736 q 309 735 345 735 l 197 735 q 147 727 172 735 q 103 702 122 719 q 72 659 84 685 q 60 597 60 632 l 60 494 l 1297 494 l 1295 614 q 1289 654 1295 632 q 1265 694 1282 675 q 1223 724 1249 712 q 1156 736 1196 736 l 975 736 l 975 605 l 381 605 l 381 736 m 1295 420 l 1295 350 l 1297 201 q 1282 136 1297 161 q 1247 96 1268 111 q 1202 74 1226 80 q 1160 67 1179 68 q 1120 68 1141 66 l 1036 68 l 975 241 l 380 241 l 320 68 l 235 68 q 174 68 208 68 q 118 82 140 69 q 83 113 96 95 q 65 153 71 132 q 60 194 60 175 l 60 420 l 1295 420 m 221 335 q 193 323 205 335 q 180 294 180 312 q 193 265 180 277 q 222 254 205 254 q 251 265 239 254 q 263 294 263 277 q 251 323 263 312 q 221 335 239 335 m 429 167 q 410 102 418 132 q 396 52 403 76 l 385 18 q 381 -3 382 8 q 382 -22 380 -14 q 395 -37 385 -31 q 425 -42 406 -42 l 920 -42 q 966 -26 951 -42 q 968 26 981 -9 q 956 67 962 43 q 943 115 949 91 q 928 167 936 140 l 429 167 m 456 675 l 456 985 q 459 1016 456 1000 q 473 1045 463 1032 q 500 1066 483 1058 q 547 1074 518 1074 l 802 1074 q 871 1055 844 1074 q 899 983 899 1035 l 899 675 l 456 675 z "},"":{"ha":1389,"x_min":0,"x_max":1308,"o":"m 682 754 m 370 754 q 461 533 373 621 q 682 441 549 445 q 903 533 815 445 q 996 754 991 621 q 903 975 991 887 q 682 1066 815 1063 q 461 975 549 1063 q 370 754 373 887 m 1053 731 m 875 731 q 926 605 876 655 q 1053 552 977 555 q 1179 605 1128 555 q 1232 731 1229 655 q 1179 857 1229 807 q 1053 910 1128 907 q 926 857 977 907 q 875 731 876 807 m 336 731 m 146 731 q 172 636 148 680 q 241 567 197 593 q 336 541 286 541 q 431 567 387 541 q 500 636 475 593 q 525 731 525 680 q 470 865 524 811 q 336 921 416 918 q 202 865 255 918 q 146 731 149 811 m 1053 981 q 982 970 1016 981 q 853 1081 930 1040 q 684 1122 776 1122 q 515 1082 591 1122 q 388 975 438 1043 q 336 981 362 981 q 160 907 231 978 q 87 731 90 837 q 160 555 90 625 q 336 481 231 484 q 418 496 380 481 q 537 414 469 444 q 684 385 605 385 q 833 416 764 385 q 954 503 902 448 q 1053 481 1000 483 q 1229 555 1158 484 q 1302 731 1299 625 q 1229 907 1299 837 q 1053 981 1158 978 m 1053 552 q 947 587 993 553 q 836 481 905 521 q 682 441 768 442 q 540 476 605 442 q 431 568 475 510 q 336 541 389 543 q 202 597 255 544 q 146 731 149 651 q 202 865 149 811 q 336 921 255 918 q 410 906 376 920 q 522 1023 450 979 q 682 1066 594 1066 q 852 1016 777 1065 q 966 887 926 967 q 1053 910 1005 909 q 1179 857 1128 907 q 1232 731 1229 807 q 1179 605 1229 655 q 1053 552 1128 555 m 682 380 q 538 408 606 380 q 418 491 471 437 q 336 477 377 477 q 157 552 228 480 q 83 731 85 624 q 157 910 85 838 q 336 985 228 982 q 385 981 361 985 q 517 1089 439 1051 q 684 1127 594 1127 q 851 1087 773 1127 q 983 975 929 1047 q 1053 985 1017 985 q 1232 910 1161 982 q 1306 731 1303 838 q 1232 552 1303 624 q 1053 477 1161 480 q 954 498 1001 477 q 831 410 901 441 q 682 380 761 380 m 416 500 l 422 499 q 541 418 475 446 q 684 389 608 389 q 828 419 760 389 q 949 506 897 449 l 955 507 q 1053 487 1002 487 q 1225 559 1157 490 q 1297 731 1294 628 q 1225 903 1294 834 q 1053 975 1157 972 q 983 966 1017 975 l 978 967 q 848 1078 925 1039 q 683 1118 770 1118 q 519 1080 595 1118 q 391 972 444 1042 l 387 970 q 336 975 361 975 q 163 903 232 972 q 92 731 94 834 q 163 559 94 628 q 336 487 232 490 q 416 500 377 487 m 682 437 q 542 469 608 437 q 430 562 476 502 q 336 537 387 537 q 199 593 254 538 q 142 731 144 648 q 199 868 144 814 q 336 925 254 922 q 407 911 373 925 q 524 1028 450 986 q 682 1072 597 1070 q 850 1023 774 1070 q 967 894 926 975 q 1053 914 1008 914 q 1183 861 1131 913 q 1236 731 1234 808 q 1183 602 1234 654 q 1053 548 1131 549 q 948 581 996 548 q 834 475 903 513 q 682 437 765 437 m 430 572 l 435 571 q 544 479 480 511 q 682 446 608 446 q 831 484 764 446 q 943 590 899 522 l 949 591 q 1053 557 996 557 q 1176 608 1127 559 q 1226 731 1225 658 q 1176 854 1225 804 q 1053 905 1127 903 q 967 883 1008 905 l 962 884 q 847 1014 921 967 q 682 1062 773 1061 q 527 1019 598 1061 q 414 903 456 978 l 407 902 q 336 916 373 916 q 205 862 258 914 q 152 731 153 810 q 205 600 153 652 q 336 547 258 548 q 430 572 387 547 m 966 887 q 899 822 924 863 q 875 731 875 781 q 895 649 875 686 q 947 587 914 612 q 996 754 994 661 q 966 887 994 826 m 525 731 q 493 837 525 791 q 410 906 461 883 q 370 754 370 837 q 387 654 370 701 q 431 568 403 608 q 500 635 475 593 q 525 731 525 678 m 472 228 q 450 174 471 195 q 396 153 429 153 q 342 174 363 153 q 320 228 321 195 q 346 296 323 254 q 387 363 369 338 q 396 369 391 369 q 406 363 401 369 q 446 296 423 338 q 472 228 469 254 m 396 148 q 339 171 362 148 q 316 228 316 194 q 340 294 317 254 q 382 366 362 335 q 396 373 388 373 q 410 366 404 373 q 452 294 430 335 q 476 228 475 254 q 452 171 475 194 q 396 146 430 148 l 396 148 m 396 365 q 391 361 392 363 q 350 295 373 336 q 326 228 327 254 q 346 177 326 197 q 396 157 366 157 q 446 178 426 157 q 467 228 465 198 q 441 295 464 254 q 401 361 419 336 q 396 365 400 363 m 776 -5 q 754 -60 776 -38 q 701 -81 732 -81 q 648 -60 669 -81 q 625 -5 627 -38 q 650 62 628 20 q 690 130 673 104 q 701 136 694 136 q 711 130 707 136 q 751 62 728 104 q 776 -5 774 20 m 701 -87 q 644 -63 667 -85 q 621 -5 621 -41 q 644 61 623 20 q 688 133 666 102 q 701 140 692 140 q 715 133 709 140 q 757 61 735 102 q 781 -5 779 20 q 758 -63 780 -41 q 701 -87 735 -85 m 701 130 q 694 127 697 130 q 655 62 678 103 q 631 -5 632 20 q 651 -56 631 -37 q 701 -76 671 -76 q 751 -56 731 -76 q 772 -5 770 -37 q 746 62 769 20 q 707 127 723 103 q 701 130 704 130 m 1072 72 q 1049 18 1070 39 q 996 -3 1028 -3 q 942 18 963 -3 q 920 72 921 39 q 945 140 922 99 q 986 208 968 182 q 996 213 990 213 q 1005 208 1001 213 q 1046 140 1023 182 q 1070 72 1069 99 l 1072 72 m 996 -8 q 939 15 962 -8 q 916 72 916 38 q 939 139 917 98 q 982 210 962 180 q 996 217 987 217 q 1009 210 1004 217 q 1052 139 1029 180 q 1076 72 1074 98 q 1052 15 1074 38 q 996 -8 1029 -8 m 996 209 q 990 205 991 209 q 949 139 972 180 q 925 72 926 98 q 945 22 925 42 q 996 1 966 1 q 1045 22 1025 1 q 1066 72 1065 42 q 1049 123 1066 88 q 1001 205 1032 159 q 996 209 1000 209 z "},"":{"ha":1389,"x_min":0,"x_max":1302,"o":"m 317 317 m 247 317 q 268 268 248 288 q 317 248 288 248 q 367 268 347 248 q 387 317 387 288 q 367 367 387 347 q 317 387 347 387 q 268 367 288 387 q 247 317 248 347 m 317 243 q 265 264 286 243 q 244 317 244 285 q 265 370 244 349 q 318 392 286 392 q 371 370 350 392 q 392 317 392 349 q 371 264 392 285 q 317 243 350 243 m 317 382 q 271 363 290 382 q 252 317 252 345 q 271 271 252 289 q 318 252 290 252 q 364 271 346 252 q 382 317 382 289 q 364 363 382 345 q 317 382 346 382 m 692 243 m 623 243 q 642 193 623 213 q 692 172 662 172 q 742 193 722 172 q 762 243 762 213 q 742 292 762 273 q 692 312 722 312 q 642 292 662 312 q 623 243 623 273 m 692 168 q 640 189 661 168 q 618 242 618 210 q 640 295 618 274 q 692 316 661 316 q 745 295 724 316 q 766 242 766 274 q 745 189 766 210 q 692 167 724 168 l 692 168 m 692 308 q 646 288 665 307 q 628 242 628 270 q 646 196 628 214 q 692 178 665 178 q 739 196 720 178 q 757 242 757 214 q 739 288 757 270 q 692 308 720 307 m 1066 317 m 997 317 q 1017 268 997 288 q 1066 248 1036 248 q 1116 268 1096 248 q 1137 317 1137 288 q 1116 367 1137 347 q 1066 387 1096 387 q 1017 367 1036 387 q 997 317 997 347 m 1066 243 q 1014 264 1035 243 q 993 317 993 285 q 1014 370 993 349 q 1067 392 1035 392 q 1120 370 1099 392 q 1141 317 1141 349 q 1120 264 1141 285 q 1066 243 1099 243 m 1066 382 q 1021 363 1039 382 q 1002 317 1002 345 q 1021 271 1002 289 q 1067 252 1039 252 q 1113 271 1095 252 q 1131 317 1131 289 q 1113 363 1131 345 q 1066 382 1095 382 m 917 18 m 846 18 q 867 -32 848 -12 q 917 -52 887 -52 q 966 -32 947 -52 q 986 18 986 -12 q 966 67 986 47 q 917 87 947 87 q 867 67 887 87 q 846 18 848 47 m 917 -57 q 864 -35 886 -57 q 842 18 842 -14 q 863 71 842 50 q 916 92 884 92 q 970 71 948 92 q 991 18 991 50 q 970 -35 991 -14 q 917 -57 948 -57 m 917 83 q 870 64 888 83 q 852 18 852 46 q 870 -28 852 -9 q 916 -47 888 -47 q 963 -28 944 -47 q 982 18 982 -9 q 963 64 982 46 q 917 83 944 83 m 449 18 m 378 18 q 388 -18 378 -1 q 414 -43 397 -34 q 449 -53 430 -53 q 484 -43 468 -53 q 510 -18 500 -34 q 519 18 519 -1 q 498 67 518 47 q 449 87 479 87 q 399 67 419 87 q 378 18 380 47 m 449 -57 q 396 -35 418 -57 q 374 18 374 -14 q 396 71 374 50 q 449 92 418 92 q 502 71 480 92 q 524 18 524 50 q 502 -35 524 -14 q 449 -57 480 -57 m 449 83 q 402 64 420 83 q 384 18 384 46 q 402 -28 384 -9 q 448 -47 420 -47 q 495 -28 476 -47 q 514 18 514 -9 q 495 64 514 46 q 449 83 476 83 m 682 757 m 373 757 q 414 602 373 673 q 528 489 454 532 q 683 446 601 446 q 838 489 765 446 q 951 602 910 532 q 993 757 993 673 q 903 977 990 890 q 682 1067 815 1065 q 463 977 551 1065 q 373 757 376 890 m 1050 735 m 872 735 q 925 609 875 659 q 1050 557 975 559 q 1176 609 1126 559 q 1227 735 1226 659 q 1176 860 1226 810 q 1050 911 1126 910 q 925 860 975 910 q 872 735 875 810 m 339 735 m 151 735 q 176 641 152 684 q 245 572 201 598 q 338 547 289 547 q 433 572 388 547 q 502 641 477 598 q 526 735 526 684 q 472 867 525 814 q 339 922 419 921 q 206 867 259 921 q 151 735 153 814 m 1050 982 q 979 971 1013 982 q 852 1082 929 1042 q 684 1123 776 1123 q 516 1084 591 1123 q 389 977 441 1044 q 339 982 365 982 q 163 909 233 979 q 91 735 94 840 q 163 559 94 629 q 339 487 233 490 q 420 502 381 488 q 538 420 471 450 q 684 391 605 391 q 832 422 764 391 q 951 509 901 453 q 1050 487 997 488 q 1225 559 1156 490 q 1298 735 1295 629 q 1225 909 1295 840 q 1050 982 1156 979 m 1050 557 q 945 591 990 559 q 835 486 903 525 q 682 446 766 448 q 541 481 605 448 q 434 572 476 514 q 339 547 391 547 q 205 602 259 548 q 151 734 152 655 q 205 867 152 814 q 339 922 259 921 q 411 907 377 922 q 523 1023 452 981 q 682 1067 594 1066 q 851 1018 777 1066 q 963 890 925 970 q 1050 911 1002 911 q 1175 860 1126 910 q 1227 735 1225 810 q 1176 609 1226 659 q 1050 557 1126 559 m 682 387 q 540 414 608 387 q 419 496 472 442 q 339 483 380 483 q 161 557 232 486 q 87 735 90 628 q 161 912 90 841 q 339 986 232 983 q 388 982 363 986 q 518 1090 442 1053 q 683 1128 594 1128 q 850 1088 772 1128 q 982 977 928 1048 q 1050 986 1016 986 q 1228 912 1157 983 q 1302 735 1299 841 q 1228 557 1299 628 q 1050 483 1157 486 q 952 503 1000 483 q 830 416 899 446 q 682 387 761 387 m 419 506 l 423 505 q 543 424 476 452 q 684 396 609 396 q 827 425 760 396 q 948 511 895 454 l 954 513 q 1050 492 1000 492 q 1221 564 1153 495 q 1293 735 1290 632 q 1221 905 1290 837 q 1050 977 1153 974 q 981 967 1015 977 l 977 968 q 847 1080 924 1040 q 683 1119 770 1119 q 521 1081 595 1119 q 393 974 446 1043 l 389 972 q 339 977 363 977 q 168 905 236 974 q 96 735 99 837 q 168 564 99 632 q 339 492 236 495 q 419 506 380 492 m 682 442 q 543 475 608 442 q 433 567 479 507 q 339 543 388 543 q 203 598 258 544 q 146 735 148 652 q 203 871 148 817 q 339 928 258 925 q 410 914 376 928 q 525 1029 453 987 q 682 1072 597 1072 q 850 1024 774 1072 q 966 895 925 977 q 1050 917 1005 916 q 1179 863 1127 914 q 1233 734 1230 811 q 1179 606 1230 656 q 1050 552 1127 555 q 947 585 993 552 q 833 479 902 517 q 682 442 764 442 m 431 576 l 438 575 q 545 484 481 515 q 682 452 609 452 q 830 489 762 452 q 941 594 898 526 l 948 595 q 1050 562 994 563 q 1172 613 1123 564 q 1222 735 1221 662 q 1172 857 1221 808 q 1050 907 1123 906 q 966 886 1005 907 l 959 887 q 846 1015 920 968 q 682 1063 773 1062 q 528 1021 598 1062 q 415 906 457 979 l 410 903 q 339 918 376 918 q 209 864 260 916 q 156 735 157 812 q 209 605 157 656 q 339 552 260 553 q 431 576 388 552 m 963 890 q 898 825 922 865 q 873 735 873 785 q 892 654 873 690 q 945 591 911 617 q 993 757 991 665 q 963 890 993 829 m 526 735 q 494 840 526 793 q 411 907 463 886 q 373 757 373 840 q 389 659 373 705 q 434 572 404 612 q 501 640 476 598 q 526 735 526 682 z "},"":{"ha":1389,"x_min":0,"x_max":1298,"o":"m 852 806 q 812 901 850 863 q 718 940 774 939 q 623 897 661 937 q 585 799 586 856 q 601 726 585 762 l 137 726 q 113 715 123 726 q 103 691 103 705 q 113 667 103 677 q 137 656 123 656 l 723 656 q 725 661 724 656 q 727 665 726 665 q 815 711 780 670 q 852 806 850 751 m 718 658 l 137 658 q 105 671 118 658 q 92 704 92 685 q 105 736 92 723 q 137 750 118 750 l 583 750 q 572 804 572 779 q 615 908 574 867 q 718 951 656 949 q 820 909 779 949 q 863 806 861 868 q 824 707 861 747 q 730 661 787 666 q 723 658 727 658 l 718 658 m 137 726 q 121 720 127 726 q 115 703 115 713 q 121 687 115 693 q 137 681 127 681 l 720 681 q 726 682 722 682 q 806 721 774 686 q 840 806 838 755 q 804 892 838 857 q 718 926 769 926 q 631 892 666 926 q 595 804 597 857 q 612 742 595 776 l 618 726 l 137 726 m 1012 236 q 972 141 1010 179 q 878 103 935 103 q 783 138 821 103 q 745 231 746 174 q 749 261 745 248 q 761 290 753 274 l 160 290 q 136 300 145 290 q 126 326 126 311 q 136 351 126 340 q 160 361 145 361 l 883 361 l 887 365 q 975 326 940 361 q 1012 236 1010 290 m 878 91 q 775 133 817 92 q 732 236 734 174 q 743 290 732 263 l 160 290 q 128 304 141 290 q 115 336 115 317 q 128 369 115 355 q 160 382 141 382 l 887 382 l 890 381 q 984 335 947 376 q 1023 236 1021 294 q 981 133 1021 174 q 878 91 940 92 m 160 361 q 144 355 151 361 q 137 338 137 349 q 144 322 137 328 q 160 316 151 316 l 780 316 l 772 300 q 755 237 755 266 q 791 150 757 184 q 878 115 826 115 q 964 150 930 115 q 1000 236 998 184 q 968 320 1000 286 q 886 359 936 354 l 883 359 l 879 361 l 160 361 m 1286 623 q 1246 718 1284 680 q 1153 757 1208 755 q 1058 713 1096 754 q 1019 616 1020 673 q 1036 544 1019 579 l 160 544 q 136 534 145 544 q 126 510 126 525 q 136 486 126 495 q 160 476 145 476 l 1157 476 q 1159 479 1158 476 q 1161 483 1160 483 q 1250 528 1215 488 q 1286 623 1284 568 m 1153 475 l 160 475 q 128 488 141 475 q 115 521 115 502 q 128 553 115 540 q 160 567 141 567 l 1019 567 q 1008 621 1006 595 q 1050 725 1009 684 q 1152 768 1090 766 q 1255 726 1214 766 q 1297 623 1295 685 q 1259 524 1295 564 q 1164 477 1222 483 q 1157 475 1162 476 l 1153 475 m 160 544 q 144 537 151 544 q 137 521 137 530 q 144 505 137 511 q 160 498 151 498 l 1154 498 q 1160 499 1157 499 q 1242 538 1210 505 q 1275 623 1274 572 q 1239 709 1274 674 q 1152 743 1204 743 q 1065 709 1100 743 q 1029 621 1031 674 q 1034 592 1029 606 q 1046 560 1038 578 l 1054 544 l 160 544 z "},"":{"ha":1389,"x_min":0,"x_max":1302,"o":"m 834 840 m 612 840 q 677 682 614 745 q 834 617 739 618 q 992 682 929 618 q 1058 840 1055 745 q 992 998 1055 935 q 834 1063 929 1061 q 677 998 739 1061 q 612 840 614 935 m 1099 823 m 971 823 q 988 760 971 789 q 1035 713 1005 731 q 1099 696 1065 696 q 1162 713 1133 696 q 1209 760 1192 731 q 1226 823 1226 789 q 1189 913 1225 878 q 1099 949 1153 949 q 1008 913 1044 949 q 971 823 972 878 m 587 823 m 452 823 q 471 756 453 787 q 520 707 488 726 q 587 689 552 689 q 654 707 623 689 q 704 756 686 726 q 722 823 722 787 q 704 891 722 860 q 654 941 686 922 q 587 959 623 959 q 520 941 552 959 q 471 891 488 922 q 452 823 453 860 m 1099 1001 q 1048 994 1073 1001 q 957 1074 1012 1044 q 836 1103 902 1103 q 715 1074 769 1103 q 624 998 661 1046 q 587 1001 606 1001 q 461 949 511 1000 q 410 823 411 899 q 461 698 411 747 q 587 646 511 648 q 646 656 618 646 q 730 597 682 618 q 836 576 779 576 q 942 599 892 576 q 1028 661 991 621 q 1099 646 1061 646 q 1225 698 1175 648 q 1276 823 1275 747 q 1225 949 1275 899 q 1099 1001 1175 1000 m 1099 696 q 1024 722 1055 697 q 944 645 993 673 q 834 617 895 617 q 732 642 779 617 q 655 707 686 666 q 587 689 625 689 q 492 728 530 690 q 453 824 453 766 q 492 920 453 882 q 587 959 530 958 q 640 948 616 959 q 720 1032 669 1001 q 836 1063 772 1063 q 956 1027 903 1062 q 1036 936 1009 993 q 1099 952 1065 951 q 1189 915 1153 951 q 1225 824 1225 879 q 1189 733 1225 769 q 1099 696 1153 697 m 834 571 q 732 592 780 572 q 644 651 684 612 q 587 642 616 642 q 458 694 510 643 q 404 823 407 746 q 458 952 407 901 q 587 1006 510 1004 q 623 1002 605 1006 q 715 1081 661 1054 q 835 1108 770 1108 q 956 1080 899 1108 q 1050 1000 1012 1051 q 1099 1006 1074 1006 q 1227 952 1176 1004 q 1282 823 1279 901 q 1227 694 1279 746 q 1099 642 1176 643 q 1029 655 1062 642 q 940 593 990 614 q 834 571 890 572 m 644 661 l 650 659 q 734 602 686 621 q 836 582 781 582 q 938 603 890 582 q 1024 665 986 624 l 1029 665 q 1099 651 1063 651 q 1221 701 1172 652 q 1272 823 1271 750 q 1221 947 1271 898 q 1099 997 1172 996 q 1050 990 1074 997 l 1044 991 q 953 1071 1008 1043 q 836 1099 898 1099 q 720 1072 773 1099 q 628 996 666 1046 l 623 993 q 587 997 605 997 q 465 947 514 996 q 414 823 416 898 q 465 701 416 750 q 587 651 514 652 q 644 661 616 651 m 834 612 q 734 635 781 612 q 654 701 688 658 q 587 684 623 684 q 488 724 528 685 q 448 823 449 764 q 488 922 449 883 q 587 963 528 962 q 637 955 613 963 q 721 1038 669 1008 q 834 1067 773 1067 q 955 1034 901 1067 q 1039 941 1009 1000 q 1099 956 1067 956 q 1193 918 1156 955 q 1230 824 1230 880 q 1193 730 1230 768 q 1099 692 1156 693 q 1025 715 1058 692 q 943 639 993 666 q 834 612 892 612 m 654 711 l 659 709 q 736 644 692 667 q 834 621 781 621 q 941 648 892 621 q 1020 723 989 675 l 1027 724 q 1099 701 1059 701 q 1186 737 1152 703 q 1221 824 1221 772 q 1186 911 1221 876 q 1099 947 1152 945 q 1039 930 1067 947 l 1032 933 q 951 1024 1004 990 q 834 1058 899 1058 q 724 1028 774 1058 q 644 945 674 998 l 637 944 q 587 954 613 954 q 495 916 532 952 q 458 823 458 879 q 495 731 458 768 q 587 693 532 694 q 654 711 623 693 m 1036 935 q 989 889 1006 918 q 971 823 971 860 q 985 766 971 792 q 1024 722 1000 739 q 1058 840 1057 773 q 1036 935 1058 891 m 723 823 q 699 899 722 867 q 640 948 677 932 q 612 840 612 899 q 655 707 613 764 q 704 755 686 726 q 723 823 722 785 m 773 273 l 705 138 l 773 85 l 562 -62 q 562 -61 562 -62 l 637 80 l 560 129 l 773 274 l 773 273 m 562 -66 l 559 -66 l 556 -62 l 632 79 l 552 127 l 772 278 l 776 278 l 779 273 l 712 140 l 781 85 l 563 -66 l 562 -66 m 570 129 l 644 81 l 574 -47 l 765 87 l 700 138 l 761 259 l 568 129 l 570 129 m 682 530 m 372 530 q 414 374 373 445 q 528 262 454 304 q 683 220 601 220 q 838 262 765 220 q 951 374 910 304 q 993 530 993 445 q 902 749 990 662 q 682 841 814 837 q 463 749 551 837 q 372 530 376 662 m 1050 507 m 872 507 q 925 382 875 431 q 1050 330 975 332 q 1176 382 1126 332 q 1227 507 1226 431 q 1176 633 1226 583 q 1050 685 1126 682 q 925 633 975 682 q 872 507 875 583 m 339 507 m 151 507 q 205 374 152 427 q 339 319 259 321 q 471 374 418 321 q 526 507 525 427 q 471 640 525 587 q 339 696 418 693 q 205 640 259 693 q 151 507 152 587 m 1050 754 q 979 745 1013 754 q 852 854 929 814 q 684 895 776 895 q 516 856 591 895 q 389 749 441 817 q 339 754 365 754 q 163 682 233 751 q 91 507 94 612 q 163 332 94 401 q 339 259 233 262 q 420 274 381 260 q 538 193 471 222 q 684 164 605 164 q 831 195 762 164 q 951 281 901 227 q 1050 259 997 260 q 1225 332 1156 262 q 1298 507 1295 401 q 1225 682 1295 612 q 1050 754 1156 751 m 1050 330 q 945 365 990 331 q 835 259 903 298 q 682 220 766 220 q 541 254 605 220 q 434 345 476 288 q 339 319 391 320 q 205 374 259 321 q 151 507 152 427 q 205 640 152 587 q 339 694 259 693 q 411 681 377 694 q 523 796 452 753 q 682 840 594 840 q 851 791 777 840 q 963 662 925 742 q 1050 685 1002 684 q 1176 632 1126 682 q 1227 507 1226 582 q 1176 382 1226 431 q 1050 330 1126 332 m 682 159 q 540 187 608 159 q 419 269 472 216 q 338 255 380 255 q 161 329 232 258 q 87 507 90 400 q 161 686 90 614 q 339 760 232 757 q 388 754 363 760 q 517 863 441 825 q 683 901 594 901 q 850 861 772 901 q 982 750 928 822 q 1050 760 1016 760 q 1228 686 1157 757 q 1302 507 1299 614 q 1228 329 1299 400 q 1050 255 1157 258 q 952 275 1000 255 q 829 189 898 218 q 682 159 761 159 m 419 278 l 423 278 q 543 196 476 224 q 684 168 609 168 q 827 198 760 168 q 948 283 895 228 l 954 285 q 1050 264 1000 264 q 1221 336 1153 267 q 1293 507 1290 404 q 1221 679 1290 610 q 1050 750 1153 747 q 981 739 1015 750 l 975 742 q 847 852 924 812 q 683 891 770 891 q 521 854 595 891 q 393 746 446 817 l 388 745 q 339 750 363 750 q 168 679 236 747 q 96 507 99 610 q 168 336 99 404 q 339 264 236 267 q 419 278 380 264 m 682 214 q 543 248 608 216 q 433 339 477 279 q 339 315 388 315 q 202 372 256 317 q 146 507 148 426 q 202 644 148 589 q 339 700 256 699 q 410 686 376 700 q 525 803 453 761 q 682 845 597 845 q 850 797 774 844 q 966 669 925 750 q 1050 689 1005 689 q 1179 636 1127 688 q 1233 507 1230 585 q 1179 378 1230 430 q 1050 326 1127 327 q 947 358 993 326 q 833 253 902 290 q 682 214 764 216 m 431 349 l 437 349 q 545 256 481 289 q 682 224 609 224 q 830 262 762 225 q 941 368 898 300 l 948 369 q 1050 335 994 335 q 1172 385 1123 336 q 1223 507 1221 434 q 1172 629 1221 581 q 1050 680 1123 678 q 966 658 1005 680 l 959 661 q 846 787 920 741 q 682 836 772 834 q 528 793 598 836 q 415 678 457 751 l 410 677 q 339 690 376 690 q 209 637 260 689 q 155 507 157 585 q 209 378 157 430 q 339 324 260 326 q 431 349 388 324 m 963 662 q 898 598 922 639 q 872 507 873 557 q 892 426 873 463 q 945 365 911 389 q 993 530 991 438 q 963 662 993 601 m 526 507 q 494 613 526 567 q 411 681 463 659 q 372 530 373 613 q 388 431 372 477 q 434 346 404 384 q 501 412 476 370 q 526 507 526 454 z "},"":{"ha":1389,"x_min":0,"x_max":1303,"o":"m 1287 917 q 1277 899 1287 906 q 1252 890 1267 891 l 137 890 q 112 899 122 891 q 102 917 102 906 l 102 937 q 112 957 102 949 q 137 964 122 964 l 1252 964 q 1277 957 1267 964 q 1287 937 1287 949 l 1287 917 m 1287 917 m 137 879 q 102 890 117 879 q 87 917 87 902 l 87 937 q 101 964 87 954 q 137 977 115 975 l 1252 977 q 1288 964 1274 975 q 1302 937 1302 954 l 1302 917 q 1288 890 1302 901 q 1252 879 1274 879 l 137 879 l 137 902 l 1252 902 q 1266 906 1260 902 q 1272 917 1272 910 l 1272 937 q 1266 949 1272 944 q 1252 954 1260 954 l 137 954 q 123 949 129 954 q 117 937 117 944 l 117 917 q 123 906 117 910 q 137 902 129 902 l 137 879 m 1287 781 q 1277 763 1287 770 q 1252 754 1267 755 l 312 754 q 288 763 297 755 q 278 781 278 770 l 278 802 q 288 821 278 814 q 312 829 297 829 l 1252 829 q 1277 821 1267 829 q 1287 802 1287 814 l 1287 781 m 1287 781 m 1252 743 l 312 743 q 277 754 292 743 q 262 781 263 765 l 262 802 q 277 829 263 818 q 312 841 292 840 l 1252 841 q 1288 829 1274 840 q 1302 802 1302 818 l 1302 781 q 1288 754 1302 765 q 1252 743 1274 743 m 1252 818 l 312 818 q 298 813 304 818 q 293 802 293 808 l 293 781 q 298 770 293 774 q 312 766 304 766 l 1252 766 q 1266 770 1260 766 q 1272 781 1272 774 l 1272 802 q 1266 813 1272 808 q 1252 818 1260 818 m 1077 646 q 1066 627 1076 635 q 1042 618 1057 620 l 208 618 q 182 627 193 620 q 172 646 172 635 l 172 666 q 182 686 172 678 q 208 693 193 693 l 1042 693 q 1066 686 1057 693 q 1077 666 1076 678 l 1077 646 m 1077 646 m 1042 608 l 208 608 q 172 618 186 608 q 157 646 157 629 l 157 666 q 172 693 157 682 q 208 705 186 704 l 1042 705 q 1076 693 1062 704 q 1092 666 1090 682 l 1092 646 q 1076 618 1090 629 q 1042 608 1062 608 m 208 682 q 193 677 198 682 q 187 667 187 673 l 187 647 q 193 635 187 640 q 208 631 198 631 l 1042 631 q 1055 635 1050 631 q 1062 647 1061 640 l 1062 667 q 1055 677 1061 673 q 1042 682 1050 682 l 208 682 m 1287 511 q 1277 492 1287 499 q 1252 484 1267 484 l 418 484 q 393 492 403 484 q 382 511 382 499 l 382 532 q 393 550 382 543 q 418 559 403 557 l 1252 559 q 1277 550 1267 557 q 1287 532 1287 543 l 1287 511 m 1287 511 m 1252 472 l 418 472 q 382 484 396 473 q 368 511 369 494 l 368 532 q 382 558 369 548 q 418 570 396 568 l 1252 570 q 1288 558 1274 568 q 1302 532 1302 548 l 1302 511 q 1288 484 1302 494 q 1252 472 1274 473 m 1252 547 l 418 547 q 404 542 410 547 q 397 530 397 537 l 397 510 q 404 500 397 505 q 418 495 410 495 l 1252 495 q 1266 500 1260 495 q 1272 510 1272 505 l 1272 530 q 1266 542 1272 537 q 1252 547 1260 547 m 1112 376 q 1101 356 1111 363 q 1077 349 1092 349 l 594 349 q 568 356 578 349 q 559 376 559 363 l 559 396 q 568 414 559 407 q 594 423 578 422 l 1077 423 q 1101 414 1092 422 q 1112 396 1111 407 l 1112 376 m 1112 376 m 1077 336 l 594 336 q 558 349 572 338 q 544 376 544 359 l 544 396 q 558 423 544 412 q 594 434 572 434 l 1077 434 q 1112 423 1097 434 q 1127 396 1126 412 l 1127 376 q 1112 349 1126 359 q 1077 336 1097 338 m 594 411 q 579 407 585 411 q 574 396 574 403 l 574 376 q 579 364 574 369 q 594 359 585 359 l 1077 359 q 1090 364 1085 359 q 1096 376 1096 369 l 1096 396 q 1090 407 1096 403 q 1077 411 1085 411 l 594 411 m 936 240 q 926 220 936 228 q 901 213 916 213 l 628 213 q 604 220 613 213 q 594 240 594 228 l 594 260 q 604 279 594 271 q 628 288 613 286 l 901 288 q 926 279 916 286 q 936 260 936 271 l 936 240 m 936 240 m 901 201 l 628 201 q 593 213 608 202 q 578 240 579 224 l 578 260 q 593 288 579 277 q 628 298 608 298 l 901 298 q 937 288 922 298 q 951 260 951 277 l 951 240 q 937 213 951 224 q 901 201 922 202 m 628 275 q 614 271 620 275 q 609 260 609 267 l 609 240 q 614 229 609 233 q 628 224 620 224 l 901 224 q 915 229 909 224 q 921 240 921 233 l 921 260 q 915 271 921 267 q 901 275 909 275 l 628 275 m 761 104 q 750 85 760 92 q 726 77 741 77 l 620 77 q 595 85 605 77 q 586 104 586 92 l 586 125 q 595 143 586 136 q 620 152 605 151 l 726 152 q 750 143 741 151 q 761 125 760 136 l 761 104 m 761 104 m 726 65 l 620 65 q 585 77 600 66 q 570 104 571 88 l 570 125 q 585 152 571 141 q 620 163 600 163 l 726 163 q 760 152 746 163 q 776 125 774 141 l 776 104 q 760 77 774 88 q 726 65 746 66 m 620 140 q 606 136 612 140 q 601 125 601 132 l 601 104 q 606 93 601 98 q 620 88 612 88 l 726 88 q 739 93 734 88 q 746 104 745 98 l 746 125 q 739 136 745 132 q 726 140 734 140 l 620 140 z "},"":{"ha":1389,"x_min":0,"x_max":1302,"o":"m 468 237 q 446 185 467 206 q 393 164 425 164 q 340 185 361 164 q 319 237 319 206 q 343 306 320 264 q 384 373 366 347 q 393 378 387 378 q 403 373 399 378 q 443 306 420 347 q 468 237 465 264 m 393 159 q 337 181 359 159 q 313 237 315 203 q 337 305 315 264 q 380 376 359 346 q 393 382 384 382 q 407 376 401 382 q 449 305 427 346 q 472 237 471 264 q 450 181 472 203 q 393 159 427 159 m 393 373 q 387 370 389 373 q 340 290 357 324 q 323 237 323 255 q 343 188 323 208 q 393 168 363 168 q 443 188 423 168 q 464 237 463 208 q 438 304 461 263 q 399 370 415 346 q 393 373 396 373 m 770 5 q 748 -47 769 -26 q 695 -68 727 -68 q 642 -47 663 -68 q 621 5 621 -26 q 646 74 623 33 q 686 141 669 115 q 695 146 689 146 q 705 141 701 146 q 745 74 723 115 q 770 5 768 33 m 696 -73 q 640 -50 662 -73 q 616 7 617 -27 q 640 73 617 33 q 682 144 662 114 q 695 151 686 151 q 709 144 704 151 q 751 73 730 114 q 774 7 773 33 q 752 -50 774 -27 q 696 -73 730 -73 m 696 142 q 689 138 692 142 q 642 58 659 92 q 625 7 625 23 q 646 -43 627 -23 q 696 -64 666 -64 q 745 -44 726 -64 q 766 7 765 -24 q 741 73 764 33 q 701 138 718 114 q 696 142 700 141 m 1063 83 q 1041 31 1062 52 q 988 9 1020 9 q 935 31 956 9 q 913 83 914 52 q 939 151 916 110 q 978 218 962 193 q 988 224 982 224 q 998 218 994 224 q 1038 151 1016 193 q 1063 83 1061 110 m 989 4 q 932 26 955 4 q 909 83 909 49 q 932 151 910 110 q 974 221 954 191 q 988 228 979 228 q 1002 221 997 228 q 1044 151 1021 191 q 1067 83 1066 110 q 1044 26 1067 49 q 989 4 1021 4 m 989 220 q 982 216 985 218 q 943 150 966 191 q 918 83 920 109 q 938 33 918 53 q 988 14 958 14 q 1038 33 1019 14 q 1058 83 1058 53 q 1041 135 1058 100 q 994 216 1024 170 q 989 220 991 218 m 1050 968 q 979 959 1013 968 q 852 1069 929 1028 q 684 1109 776 1109 q 516 1070 591 1109 q 389 963 441 1031 q 339 968 365 968 q 163 896 233 966 q 91 722 94 826 q 163 547 94 616 q 339 475 233 477 q 420 488 382 475 q 538 408 471 437 q 684 378 605 378 q 832 410 764 378 q 951 495 901 441 q 1050 475 997 475 q 1225 547 1156 477 q 1298 722 1295 616 q 1225 896 1295 826 q 1050 968 1156 966 m 682 373 q 540 401 608 373 q 419 483 472 429 q 339 469 380 469 q 161 543 232 472 q 87 722 90 614 q 161 900 90 829 q 339 974 232 971 q 388 968 363 974 q 518 1077 442 1039 q 683 1115 594 1115 q 850 1076 772 1115 q 982 964 928 1036 q 1050 974 1016 974 q 1228 900 1157 971 q 1302 722 1299 829 q 1228 543 1299 614 q 1050 469 1157 472 q 952 490 1000 469 q 830 403 899 433 q 682 373 761 373 m 422 494 l 423 491 q 543 410 476 438 q 684 382 609 382 q 827 412 760 382 q 948 498 895 442 l 951 500 l 954 499 q 1050 479 1000 479 q 1221 550 1153 481 q 1293 722 1290 618 q 1221 893 1290 825 q 1050 964 1153 962 q 982 954 1016 964 l 978 952 l 977 955 q 847 1066 924 1027 q 684 1105 770 1105 q 522 1067 597 1105 q 393 960 446 1029 l 392 958 l 389 959 q 339 964 365 964 q 168 893 236 962 q 96 722 99 825 q 168 550 99 618 q 339 479 236 481 q 419 492 380 479 l 422 494 z "},"":{"ha":1389,"x_min":0,"x_max":1303,"o":"m 582 650 m 396 650 q 420 556 396 598 q 489 488 445 514 q 582 463 533 463 q 675 488 631 463 q 743 556 719 514 q 768 650 768 598 q 713 781 766 728 q 582 836 661 833 q 450 781 503 833 q 396 650 397 728 m 582 458 q 447 515 500 461 q 391 650 393 568 q 447 785 393 731 q 582 841 500 838 q 717 785 663 838 q 773 650 770 731 q 717 515 770 568 q 582 458 663 461 m 582 831 q 454 777 505 829 q 400 650 403 726 q 454 521 403 572 q 582 468 505 469 q 710 521 659 469 q 764 650 761 572 q 710 778 761 727 q 582 831 659 829 m 594 897 q 409 820 483 894 q 332 635 335 746 q 409 450 335 524 q 594 373 483 376 q 779 450 705 376 q 856 635 853 524 q 779 820 853 746 q 594 897 705 894 m 594 457 q 468 509 518 458 q 416 635 418 559 q 468 761 418 711 q 594 812 518 811 q 720 761 670 811 q 772 635 770 711 q 720 509 770 559 q 594 457 670 458 m 594 368 q 405 446 480 370 q 327 635 330 521 q 405 824 330 749 q 594 902 480 899 q 782 824 707 899 q 861 635 857 749 q 782 446 857 521 q 594 368 707 370 m 594 892 q 412 817 484 890 q 336 635 339 743 q 412 452 339 525 q 594 377 484 380 q 776 452 703 380 q 852 635 849 525 q 776 817 849 745 q 594 892 703 890 m 594 452 q 465 506 517 454 q 411 635 414 557 q 465 764 414 712 q 594 818 517 815 q 723 764 671 815 q 776 635 774 712 q 723 506 774 557 q 594 452 671 454 m 594 808 q 471 757 521 806 q 420 635 422 708 q 471 513 422 562 q 594 461 521 464 q 716 513 667 464 q 768 635 765 562 q 716 757 765 708 q 594 808 667 806 m 624 981 l 567 981 q 566 983 566 982 l 566 1119 q 567 1122 566 1122 l 624 1122 q 627 1119 627 1122 l 627 983 q 624 981 627 982 m 595 977 q 570 987 581 977 q 560 1012 560 997 l 560 1090 q 570 1116 560 1105 q 595 1126 581 1126 q 621 1116 610 1126 q 631 1090 631 1105 l 631 1012 q 621 987 631 997 q 595 977 610 977 m 595 1118 q 577 1109 585 1116 q 570 1090 570 1101 l 570 1012 q 577 994 570 1001 q 595 986 585 986 q 614 994 606 986 q 621 1012 621 1001 l 621 1090 q 614 1109 621 1101 q 595 1118 606 1116 m 372 899 l 331 859 q 328 859 330 857 l 232 955 q 232 958 231 956 l 271 998 q 275 998 274 1000 l 372 902 q 372 899 373 901 m 330 865 q 304 876 315 865 l 248 932 q 239 956 239 941 q 249 981 239 971 q 273 991 259 991 q 298 982 288 991 l 354 925 q 365 901 365 916 q 355 876 365 886 q 330 865 345 865 m 274 982 q 256 975 263 982 q 248 956 248 967 q 255 937 248 945 l 311 882 q 330 875 319 875 q 348 882 340 875 q 355 901 355 890 q 347 918 355 911 l 292 975 q 274 982 283 982 m 251 662 l 251 605 q 248 602 251 604 l 113 602 q 110 605 110 604 l 110 662 q 113 665 110 663 l 248 665 q 251 662 251 665 m 220 598 l 141 598 q 116 608 126 598 q 106 633 106 618 q 116 659 106 648 q 141 669 126 669 l 220 669 q 245 659 235 669 q 255 633 255 648 q 245 608 255 618 q 220 598 235 598 m 141 659 q 123 652 130 659 q 115 633 115 644 q 123 615 115 623 q 141 608 130 608 l 220 608 q 238 615 231 608 q 245 633 245 623 q 238 652 245 644 q 220 659 231 659 l 141 659 m 944 608 l 944 665 q 945 667 944 666 l 1081 667 q 1084 665 1084 666 l 1084 608 q 1081 605 1084 606 l 945 605 q 944 608 944 605 m 1054 601 l 974 601 q 949 611 959 601 q 939 636 939 621 q 949 661 939 651 q 974 671 959 671 l 1054 671 q 1078 661 1069 671 q 1088 636 1088 651 q 1078 611 1088 621 q 1054 601 1069 601 m 974 662 q 956 654 963 662 q 948 636 948 647 q 956 618 948 625 q 974 610 963 610 l 1053 610 q 1072 618 1065 610 q 1078 636 1078 625 q 1072 654 1078 647 q 1053 662 1065 662 l 974 662 m 861 861 l 821 901 q 821 905 819 902 l 917 1000 q 920 1000 918 1001 l 960 960 q 960 956 962 959 l 864 861 q 861 861 863 859 m 863 867 q 838 878 848 867 q 827 903 827 888 q 838 928 827 917 l 894 983 q 919 993 905 993 q 943 983 933 993 q 954 958 954 972 q 944 933 954 944 l 888 878 q 863 867 878 867 m 918 985 q 901 977 907 985 l 844 921 q 837 902 837 913 q 844 884 837 891 q 863 876 852 876 q 882 884 873 876 l 937 940 q 944 958 944 947 q 937 977 944 968 q 918 985 929 985 m 682 286 m 372 286 q 463 67 376 155 q 682 -24 551 -20 q 903 67 815 -20 q 993 286 990 155 q 903 507 990 419 q 682 597 815 594 q 463 507 551 594 q 372 286 376 419 m 1050 264 m 873 264 q 925 138 875 189 q 1050 87 975 88 q 1176 138 1126 88 q 1227 264 1226 189 q 1176 389 1226 339 q 1050 442 1126 439 q 925 389 975 439 q 873 264 875 339 m 339 264 m 151 264 q 176 170 151 213 q 245 102 201 127 q 338 76 289 76 q 432 102 388 76 q 501 170 476 127 q 526 264 526 213 q 472 397 525 345 q 339 452 419 450 q 206 397 259 450 q 151 264 153 345 m 1050 511 q 979 502 1013 511 q 852 612 929 571 q 684 652 776 652 q 516 613 591 652 q 389 506 441 574 q 339 511 365 511 q 163 439 233 509 q 91 264 94 369 q 163 89 94 159 q 339 16 233 19 q 420 31 381 18 q 538 -50 471 -20 q 684 -80 605 -80 q 832 -49 764 -80 q 951 38 901 -18 q 1050 16 997 18 q 1225 89 1156 19 q 1298 264 1295 159 q 1225 439 1295 369 q 1050 511 1156 509 m 1050 87 q 945 121 990 88 q 835 16 903 56 q 682 -24 766 -23 q 541 10 605 -23 q 434 102 476 43 q 339 76 391 76 q 206 131 259 77 q 151 264 153 184 q 206 397 153 345 q 339 452 259 450 q 411 437 377 452 q 523 553 452 510 q 682 597 594 595 q 851 547 777 595 q 963 419 925 499 q 1050 441 1002 441 q 1176 389 1126 439 q 1227 264 1226 339 q 1176 138 1226 189 q 1050 87 1126 88 m 682 -84 q 540 -56 608 -84 q 419 26 472 -28 q 339 12 380 12 q 161 86 232 15 q 87 264 90 157 q 161 442 90 372 q 339 517 232 513 q 388 511 363 515 q 518 620 442 582 q 683 658 594 658 q 850 618 772 658 q 982 506 928 578 q 1050 517 1016 515 q 1228 442 1157 513 q 1302 264 1299 372 q 1228 86 1299 157 q 1050 12 1157 15 q 952 31 1000 12 q 830 -54 899 -24 q 682 -84 761 -84 m 419 35 l 423 34 q 543 -47 476 -19 q 684 -75 609 -75 q 827 -45 760 -75 q 948 41 895 -16 l 954 42 q 1050 22 1000 22 q 1221 93 1153 24 q 1293 264 1290 161 q 1221 436 1290 368 q 1050 507 1153 505 q 981 496 1015 507 l 977 498 q 847 609 924 570 q 683 648 770 648 q 521 610 595 648 q 393 503 446 572 l 388 502 q 339 507 363 507 q 168 436 236 505 q 96 264 99 368 q 168 93 99 161 q 339 22 236 24 q 419 35 380 22 m 682 -28 q 543 4 608 -28 q 433 96 479 37 q 339 72 388 72 q 202 128 256 73 q 146 264 148 183 q 202 400 148 346 q 339 457 256 454 q 410 444 376 457 q 525 559 453 518 q 682 602 597 601 q 850 554 774 601 q 966 426 925 507 q 1050 446 1005 446 q 1179 393 1127 445 q 1233 264 1230 342 q 1179 136 1230 187 q 1050 81 1127 84 q 947 115 993 83 q 833 9 902 47 q 682 -28 764 -28 m 431 106 l 437 104 q 545 14 481 46 q 682 -19 609 -19 q 830 19 762 -19 q 941 123 898 57 l 948 125 q 1050 91 994 92 q 1172 142 1123 94 q 1223 264 1221 191 q 1172 387 1221 338 q 1050 437 1123 435 q 966 415 1005 437 l 959 416 q 846 545 920 498 q 682 593 773 591 q 528 550 598 591 q 415 435 457 509 l 410 433 q 339 448 376 448 q 209 393 260 445 q 155 264 157 342 q 209 134 157 186 q 339 81 260 83 q 431 106 388 81 m 963 419 q 898 355 922 396 q 873 264 873 315 q 892 183 873 220 q 945 121 911 146 q 993 286 991 194 q 963 419 993 358 m 526 264 q 494 370 526 324 q 411 438 463 415 q 372 286 373 370 q 389 188 373 235 q 434 102 404 141 q 501 170 476 127 q 526 264 526 212 z "},"":{"ha":1389,"x_min":0,"x_max":1198,"o":"m 692 789 q 502 710 578 785 q 423 521 426 635 q 502 332 426 407 q 692 252 578 256 q 881 332 806 256 q 959 521 956 407 q 881 710 956 635 q 692 789 806 785 m 692 339 q 563 392 614 340 q 510 521 511 444 q 563 650 511 598 q 692 703 614 701 q 820 650 769 701 q 873 521 871 598 q 820 392 871 444 q 692 339 769 340 m 692 248 q 498 328 575 251 q 419 521 422 406 q 498 713 422 636 q 692 793 575 791 q 884 713 807 791 q 964 521 962 636 q 884 328 962 406 q 692 248 807 251 m 692 784 q 505 707 579 781 q 429 521 431 632 q 505 335 431 410 q 692 258 579 260 q 878 335 803 260 q 955 521 952 410 q 878 707 952 632 q 692 784 803 781 m 692 334 q 559 389 612 336 q 505 521 506 442 q 559 652 506 600 q 692 708 612 705 q 823 652 770 705 q 878 521 876 600 q 823 389 876 442 q 692 334 770 336 m 692 699 q 566 646 616 696 q 514 521 517 595 q 566 396 517 446 q 692 345 616 346 q 817 396 766 346 q 868 521 867 446 q 817 646 867 595 q 692 699 766 696 m 723 875 l 665 875 q 662 878 662 875 l 662 1016 q 665 1019 662 1019 l 723 1019 q 724 1016 724 1019 l 724 878 q 723 875 724 875 m 693 871 q 668 881 678 871 q 656 906 658 891 l 656 987 q 668 1013 658 1002 q 693 1023 678 1023 q 718 1013 708 1023 q 730 987 728 1002 l 730 906 q 718 881 728 891 q 693 871 708 871 m 693 1013 q 675 1006 682 1013 q 666 987 667 998 l 666 906 q 675 888 667 895 q 693 880 682 880 q 711 888 704 880 q 720 906 719 895 l 720 987 q 711 1006 719 998 q 693 1013 704 1013 m 464 791 l 423 750 q 419 750 420 749 l 321 848 q 321 852 320 849 l 362 892 q 365 892 363 894 l 464 795 q 464 791 465 792 m 420 757 q 396 768 406 757 l 338 825 q 328 850 328 836 q 338 875 328 864 q 363 886 349 886 q 389 875 378 886 l 446 818 q 457 792 457 807 q 446 767 457 777 q 420 757 435 757 m 363 876 q 345 869 353 876 q 338 850 338 861 q 345 831 338 838 l 403 773 q 420 766 410 766 q 439 774 431 766 q 448 792 448 781 q 439 811 448 803 l 382 868 q 363 876 374 876 m 340 549 l 340 491 q 338 488 340 488 l 199 488 q 197 491 197 488 l 197 549 q 199 551 197 551 l 338 551 q 340 549 340 551 m 309 483 l 228 483 q 203 494 213 484 q 193 519 193 505 q 203 545 193 534 q 228 556 213 555 l 309 556 q 334 545 324 555 q 345 519 345 534 q 334 494 345 505 q 309 483 324 484 m 228 547 q 210 538 217 545 q 202 519 202 530 q 210 501 202 509 q 228 492 217 494 l 309 492 q 328 501 320 494 q 335 519 335 509 q 328 538 335 530 q 309 547 320 545 l 228 547 m 425 290 l 465 250 q 465 245 467 247 l 368 148 q 363 148 366 146 l 323 189 q 323 191 321 190 l 422 290 q 425 290 423 292 m 366 155 q 340 165 351 155 q 330 190 330 175 q 340 216 330 205 l 397 273 q 423 283 408 283 q 448 273 438 283 q 458 247 458 262 q 449 222 458 232 l 392 164 q 366 155 381 155 m 423 274 q 404 266 412 274 l 347 209 q 339 190 339 201 q 347 172 339 179 q 366 164 355 164 q 384 171 377 164 l 442 228 q 449 247 449 236 q 441 266 449 258 q 423 274 434 274 m 667 167 l 726 167 q 727 164 727 167 l 727 26 q 726 23 727 23 l 667 23 q 665 26 665 23 l 665 164 q 667 167 665 167 m 696 19 q 671 29 681 19 q 659 54 661 39 l 659 136 q 671 161 661 151 q 696 171 681 171 q 721 161 711 171 q 732 136 731 151 l 732 54 q 721 29 731 39 q 696 19 711 19 m 696 161 q 677 154 685 161 q 669 136 670 146 l 669 54 q 677 36 670 43 q 696 28 685 28 q 714 36 707 28 q 723 54 722 43 l 723 136 q 714 154 722 146 q 696 161 707 161 m 925 251 l 967 292 q 970 292 968 293 l 1067 194 q 1067 191 1069 193 l 1027 149 q 1024 149 1025 148 l 925 248 q 925 251 924 250 m 1025 156 q 1000 167 1010 156 l 943 224 q 932 250 932 235 q 943 275 932 264 q 968 285 954 285 q 994 275 983 285 l 1051 217 q 1061 192 1061 206 q 1050 167 1061 178 q 1025 156 1040 156 m 968 275 q 949 268 958 275 q 941 250 941 260 q 949 231 941 239 l 1006 174 q 1025 165 1015 165 q 1044 173 1036 165 q 1051 192 1051 180 q 1044 210 1051 203 l 987 269 q 968 275 979 275 m 1048 494 l 1048 552 q 1051 553 1048 553 l 1190 553 q 1192 552 1192 553 l 1192 494 q 1190 491 1192 491 l 1051 491 q 1048 494 1048 491 m 1161 486 l 1080 486 q 1055 497 1065 487 q 1044 522 1044 507 q 1055 547 1044 537 q 1080 559 1065 557 l 1161 559 q 1186 547 1176 557 q 1196 522 1196 537 q 1186 497 1196 507 q 1161 486 1176 487 m 1080 549 q 1061 541 1069 548 q 1054 522 1054 533 q 1061 504 1054 511 q 1080 495 1069 496 l 1161 495 q 1179 504 1172 496 q 1187 522 1187 511 q 1179 541 1187 533 q 1161 549 1172 548 l 1080 549 m 964 751 l 924 793 q 924 796 922 795 l 1021 894 q 1025 894 1023 895 l 1066 853 q 1066 850 1067 852 l 968 751 q 964 751 966 750 m 966 758 q 941 769 951 758 q 930 795 930 780 q 941 819 930 810 l 998 878 q 1023 887 1009 887 q 1048 877 1038 887 q 1059 852 1059 867 q 1048 826 1059 837 l 991 769 q 966 758 981 758 m 1023 878 q 1005 871 1012 878 l 947 812 q 940 794 940 806 q 947 775 940 783 q 966 768 955 768 q 985 776 977 768 l 1042 833 q 1050 852 1050 841 q 1042 870 1050 863 q 1023 878 1035 878 z "},"":{"ha":1389,"x_min":0,"x_max":1302,"o":"m 682 673 m 373 673 q 463 454 376 541 q 682 362 551 366 q 903 454 815 366 q 993 673 990 541 q 903 892 990 804 q 682 983 815 979 q 463 892 551 979 q 373 673 376 804 m 1050 650 m 872 650 q 924 525 875 575 q 1050 473 974 475 q 1175 525 1124 475 q 1227 650 1225 575 q 1175 776 1225 726 q 1050 827 1124 826 q 924 776 974 826 q 872 650 875 726 m 339 650 m 152 650 q 206 517 153 571 q 339 463 259 464 q 472 517 419 464 q 528 650 525 571 q 472 783 525 730 q 339 838 419 836 q 206 783 259 836 q 152 650 153 730 m 1050 898 q 979 887 1013 897 q 852 997 929 956 q 684 1038 776 1038 q 517 998 593 1038 q 391 892 441 959 q 339 898 365 897 q 165 825 235 895 q 92 650 95 755 q 165 475 95 545 q 339 403 235 406 q 420 418 382 404 q 538 336 471 366 q 684 307 605 307 q 831 338 762 308 q 951 425 901 369 q 1050 403 997 404 q 1224 475 1154 406 q 1297 650 1294 545 q 1224 825 1294 755 q 1050 897 1154 895 l 1050 898 m 1050 473 q 945 507 990 475 q 835 403 903 442 q 682 363 766 363 q 541 397 605 363 q 434 488 477 430 q 339 463 392 464 q 206 517 259 464 q 152 650 153 571 q 206 783 153 730 q 339 838 259 836 q 412 823 378 838 q 524 939 453 895 q 682 983 594 982 q 851 933 777 982 q 963 804 925 884 q 1050 827 1002 827 q 1175 775 1124 825 q 1227 650 1225 726 q 1175 525 1225 575 q 1050 473 1124 475 m 682 302 q 541 330 608 302 q 419 412 473 358 q 339 399 380 399 q 161 473 232 401 q 88 650 91 544 q 161 828 91 757 q 339 902 232 899 q 388 897 363 902 q 518 1005 442 967 q 683 1043 594 1043 q 850 1004 772 1043 q 981 892 928 964 q 1050 902 1015 902 q 1227 828 1157 899 q 1302 650 1298 757 q 1228 473 1299 544 q 1050 399 1157 401 q 952 419 998 399 q 829 332 898 362 q 682 302 761 302 m 419 422 l 425 420 q 543 340 476 368 q 684 312 609 312 q 827 341 760 312 q 947 427 895 370 l 952 429 q 1050 408 1000 408 q 1221 479 1153 411 q 1293 650 1290 548 q 1221 821 1290 753 q 1050 892 1153 890 q 981 883 1015 892 l 975 884 q 847 994 924 955 q 683 1034 770 1034 q 521 996 595 1034 q 393 890 446 959 l 389 887 q 339 892 363 892 q 168 821 236 890 q 96 651 99 753 q 168 479 99 548 q 339 408 236 411 q 419 422 380 408 m 682 358 q 543 391 608 358 q 433 483 479 423 q 339 458 389 458 q 203 514 258 460 q 146 650 149 568 q 203 787 149 732 q 339 842 258 841 q 410 829 376 842 q 525 945 453 903 q 682 987 597 987 q 848 939 773 986 q 966 811 924 892 q 1050 831 1005 831 q 1178 779 1127 830 q 1232 650 1229 727 q 1178 522 1229 572 q 1050 468 1127 471 q 945 500 993 468 q 832 395 901 433 q 682 358 764 358 m 431 492 l 438 491 q 545 399 481 431 q 682 368 609 368 q 830 405 762 368 q 941 510 898 442 l 948 511 q 1050 477 994 477 q 1172 528 1123 480 q 1222 650 1221 576 q 1172 772 1221 723 q 1050 823 1123 821 q 966 800 1005 822 l 959 803 q 846 930 920 883 q 682 978 772 977 q 528 936 598 978 q 416 821 457 894 l 410 819 q 339 833 376 833 q 210 780 262 831 q 156 650 159 728 q 210 521 159 572 q 339 467 262 469 q 431 492 388 468 m 963 804 q 898 741 922 781 q 872 650 873 701 q 892 569 873 606 q 945 507 911 532 q 993 673 991 581 q 963 804 991 745 m 528 650 q 495 755 526 709 q 412 823 464 802 q 373 673 373 755 q 389 574 373 621 q 434 488 406 528 q 501 555 476 513 q 528 650 526 598 m 757 77 q 734 25 755 46 q 682 4 713 4 q 629 25 650 4 q 608 77 608 46 q 632 146 609 104 q 673 213 655 187 q 682 218 675 218 q 692 213 688 218 q 732 146 709 187 q 757 77 754 104 m 682 -1 q 626 21 648 -1 q 602 77 604 43 q 626 144 604 103 q 669 216 648 184 q 682 222 673 222 q 696 216 690 222 q 738 144 716 184 q 761 77 760 103 q 738 21 761 43 q 682 -1 715 -1 m 682 213 q 675 210 678 213 q 637 144 659 186 q 612 77 614 103 q 632 28 612 47 q 682 8 652 8 q 732 28 712 8 q 751 77 751 47 q 727 144 750 103 q 688 210 704 186 q 682 213 685 213 z "},"":{"ha":1389,"x_min":0,"x_max":1303,"o":"m 684 521 m 373 521 q 465 300 377 388 q 684 210 552 213 q 903 300 815 213 q 994 521 990 388 q 903 740 990 652 q 684 831 815 827 q 465 740 552 827 q 373 521 377 652 m 1051 498 m 873 498 q 926 372 876 422 q 1051 320 975 323 q 1176 372 1126 323 q 1229 498 1226 422 q 1176 623 1226 574 q 1051 675 1126 673 q 926 623 975 673 q 873 498 876 574 m 339 498 m 152 498 q 207 365 153 418 q 339 309 260 312 q 473 365 419 312 q 528 498 526 418 q 473 631 526 578 q 339 686 419 684 q 207 631 260 684 q 152 498 153 578 m 1051 745 q 981 735 1015 745 q 853 845 930 804 q 684 886 776 886 q 517 846 593 886 q 391 739 441 807 q 339 745 366 745 q 165 672 235 742 q 92 498 95 602 q 165 323 95 393 q 339 251 235 254 q 422 264 382 251 q 539 184 472 213 q 685 155 606 155 q 832 186 764 155 q 952 271 901 217 q 1051 251 998 251 q 1225 323 1156 254 q 1298 498 1295 393 q 1225 672 1295 602 q 1051 745 1156 742 m 1051 320 q 947 355 991 321 q 836 250 903 289 q 684 210 768 210 q 542 244 606 210 q 434 335 477 278 q 339 309 392 311 q 206 365 259 312 q 152 498 153 418 q 206 631 153 578 q 339 685 259 684 q 412 671 378 685 q 524 787 453 743 q 684 830 595 830 q 852 781 779 829 q 964 652 925 732 q 1051 675 1004 674 q 1176 623 1126 673 q 1229 498 1226 572 q 1177 372 1226 422 q 1051 320 1127 323 m 682 149 q 540 178 608 149 q 419 259 472 206 q 339 247 380 247 q 161 320 232 250 q 87 498 90 391 q 161 676 90 605 q 339 750 232 747 q 388 746 363 750 q 518 854 442 817 q 683 891 594 891 q 850 852 772 891 q 982 741 928 812 q 1050 750 1016 750 q 1228 676 1157 747 q 1302 498 1299 605 q 1228 321 1299 392 q 1050 247 1157 250 q 952 266 1000 247 q 830 179 899 209 q 682 149 761 149 m 419 270 l 423 269 q 543 187 476 216 q 684 159 609 159 q 827 189 760 159 q 948 275 895 218 l 954 275 q 1050 255 1000 255 q 1221 326 1153 258 q 1293 498 1290 395 q 1221 669 1290 601 q 1050 741 1153 738 q 981 731 1016 741 l 977 732 q 847 842 924 803 q 683 882 770 882 q 521 844 595 882 q 393 738 446 807 l 389 735 q 339 741 363 741 q 168 669 236 738 q 96 498 99 601 q 168 326 99 395 q 339 255 236 258 q 419 270 380 255 m 682 206 q 543 238 608 206 q 433 330 479 270 q 339 305 388 305 q 203 362 258 308 q 146 498 148 416 q 202 635 148 581 q 339 692 256 689 q 410 678 376 692 q 525 793 453 751 q 682 837 597 836 q 850 788 774 836 q 966 659 925 741 q 1050 681 1005 680 q 1179 627 1127 678 q 1233 498 1230 575 q 1179 370 1230 420 q 1050 316 1127 319 q 947 349 993 316 q 833 243 902 281 q 682 206 764 206 m 431 340 l 437 339 q 545 248 481 279 q 682 216 609 216 q 830 253 762 216 q 941 358 898 290 l 948 359 q 1050 326 994 326 q 1172 376 1123 327 q 1223 498 1221 425 q 1172 620 1221 571 q 1050 671 1123 669 q 966 648 1005 670 l 959 651 q 846 779 920 732 q 682 826 773 826 q 528 785 598 826 q 415 669 457 743 l 410 667 q 339 682 376 682 q 209 628 260 680 q 156 498 157 576 q 209 369 157 420 q 339 315 260 317 q 431 340 388 315 m 964 652 q 899 589 924 629 q 873 498 875 548 q 894 416 875 453 q 947 355 913 380 q 994 521 993 429 q 964 652 993 591 m 528 498 q 495 603 526 557 q 412 671 464 648 q 373 521 374 604 q 389 421 373 468 q 434 335 406 374 q 503 403 477 361 q 528 498 528 445 z "},"":{"ha":1389,"x_min":0,"x_max":1303,"o":"m 684 699 m 373 699 q 463 479 376 567 q 682 388 551 391 q 903 479 815 391 q 994 699 990 567 q 903 918 990 830 q 684 1009 815 1005 q 463 918 551 1005 q 373 699 376 830 m 1051 675 m 873 675 q 925 551 875 601 q 1051 498 975 500 q 1176 551 1126 500 q 1227 675 1226 601 q 1176 802 1226 751 q 1051 853 1126 852 q 925 802 975 852 q 873 675 875 751 m 339 675 m 151 675 q 176 582 152 625 q 245 513 201 538 q 338 488 289 488 q 433 513 388 488 q 502 582 477 538 q 526 675 526 625 q 472 808 525 755 q 339 864 419 861 q 206 808 259 861 q 151 675 153 755 m 1051 924 q 981 913 1013 922 q 852 1023 929 982 q 684 1065 776 1065 q 517 1025 593 1065 q 389 918 441 986 q 339 922 365 922 q 163 851 233 921 q 92 675 94 781 q 163 501 94 571 q 339 429 233 431 q 420 442 382 429 q 538 361 471 391 q 684 332 605 332 q 832 363 764 332 q 952 449 901 395 q 1051 429 997 429 q 1225 501 1156 431 q 1298 675 1295 571 q 1225 851 1295 781 q 1051 922 1156 921 l 1051 924 m 1051 498 q 945 533 990 499 q 835 428 903 467 q 684 388 766 389 q 542 422 606 388 q 434 514 477 456 q 339 487 392 488 q 206 543 259 490 q 151 675 153 595 q 206 808 153 755 q 339 864 259 861 q 412 849 378 864 q 524 964 453 921 q 684 1009 594 1008 q 851 959 777 1008 q 964 830 925 910 q 1051 853 1002 852 q 1176 801 1126 850 q 1227 675 1226 751 q 1176 551 1226 601 q 1051 498 1126 500 m 682 327 q 540 355 608 327 q 419 437 472 384 q 339 423 380 423 q 161 497 232 426 q 87 675 90 568 q 161 854 90 783 q 339 928 232 925 q 388 924 363 928 q 518 1031 442 993 q 683 1069 594 1069 q 850 1029 772 1069 q 982 918 928 990 q 1050 928 1016 928 q 1228 854 1157 925 q 1302 675 1299 783 q 1228 497 1299 568 q 1050 423 1157 426 q 952 444 1000 423 q 830 357 899 387 q 682 327 761 327 m 419 448 l 423 446 q 543 365 476 393 q 684 336 609 336 q 827 366 760 336 q 948 453 895 396 l 954 453 q 1050 433 1000 433 q 1221 504 1153 435 q 1293 675 1290 572 q 1221 847 1290 779 q 1050 918 1153 916 q 981 909 1015 918 l 977 910 q 847 1020 924 981 q 683 1059 770 1059 q 521 1022 595 1059 q 393 916 446 985 l 388 913 q 339 918 363 918 q 168 847 236 916 q 96 675 99 779 q 168 504 99 572 q 339 433 236 435 q 419 446 380 433 l 419 448 m 682 384 q 543 416 608 384 q 433 507 479 448 q 339 483 388 483 q 202 540 256 486 q 146 675 148 594 q 202 812 148 758 q 339 868 256 867 q 410 856 376 868 q 525 971 453 929 q 682 1013 597 1013 q 850 966 774 1013 q 966 837 925 918 q 1050 859 1005 857 q 1179 804 1127 856 q 1233 675 1230 753 q 1179 547 1230 598 q 1050 494 1127 495 q 947 526 993 494 q 833 421 902 458 q 682 384 764 384 m 431 518 l 437 517 q 545 425 481 457 q 682 392 609 393 q 830 431 762 393 q 941 536 898 468 l 948 537 q 1050 503 994 503 q 1172 553 1123 505 q 1223 675 1221 602 q 1172 798 1221 749 q 1050 849 1123 846 q 966 826 1005 848 l 959 829 q 846 957 920 910 q 682 1004 773 1004 q 528 962 598 1004 q 415 846 457 921 l 410 845 q 339 859 376 859 q 209 806 260 857 q 156 675 157 754 q 209 546 157 598 q 339 492 260 494 q 431 518 388 492 m 964 830 q 898 766 922 807 q 873 675 873 726 q 892 594 873 631 q 945 533 911 557 q 993 699 991 606 q 964 830 993 770 m 528 675 q 495 781 526 735 q 412 849 464 827 q 373 699 373 781 q 389 599 373 646 q 434 514 404 552 q 501 581 476 538 q 528 675 526 624 m 548 194 q 526 142 547 163 q 473 121 505 121 q 420 142 441 121 q 397 194 399 163 q 423 262 400 221 q 463 330 446 304 q 473 335 467 335 q 483 330 479 335 q 523 262 500 304 q 548 194 545 221 m 473 115 q 417 138 439 115 q 393 194 395 160 q 417 262 395 221 q 460 332 439 302 q 473 339 464 339 q 487 332 481 339 q 529 262 507 302 q 552 194 551 221 q 530 138 552 160 q 473 114 507 115 l 473 115 m 473 330 q 467 327 469 330 q 427 261 450 302 q 403 194 404 220 q 423 144 403 164 q 473 125 444 125 q 523 144 503 125 q 543 194 543 164 q 518 261 541 220 q 479 327 495 302 q 473 330 476 330 m 948 52 q 926 -1 947 20 q 873 -23 905 -23 q 820 -1 841 -23 q 798 52 799 20 q 823 120 800 79 q 863 187 846 161 q 873 193 867 193 q 883 187 879 193 q 923 120 901 161 q 948 52 945 79 m 873 -28 q 817 -5 840 -27 q 793 52 793 18 q 817 118 795 77 q 859 190 838 159 q 873 197 864 197 q 887 190 882 197 q 928 118 906 159 q 952 52 951 77 q 929 -5 952 18 q 873 -28 906 -27 m 873 187 q 867 184 869 187 q 827 119 850 160 q 803 52 804 77 q 823 2 803 22 q 873 -18 842 -18 q 923 2 903 -18 q 943 52 943 22 q 918 119 941 77 q 879 184 895 160 q 873 187 876 187 z "},"":{"ha":1389,"x_min":0,"x_max":1303,"o":"m 570 180 q 547 128 568 149 q 494 107 526 107 q 441 128 463 107 q 419 180 420 149 q 445 249 422 208 q 484 316 468 290 q 494 321 488 321 q 505 316 500 321 q 545 249 522 290 q 570 180 567 208 m 495 102 q 439 124 461 102 q 415 180 416 146 q 439 248 416 208 q 481 319 461 289 q 494 326 486 326 q 509 319 503 326 q 551 248 529 289 q 574 180 572 208 q 551 124 574 146 q 495 102 528 102 m 495 316 q 488 313 491 316 q 449 248 472 289 q 425 180 426 206 q 445 131 425 151 q 495 111 465 111 q 545 131 525 111 q 564 180 564 151 q 540 248 563 206 q 500 313 517 289 q 495 316 498 316 m 970 38 q 947 -15 968 7 q 895 -37 926 -37 q 842 -15 863 -37 q 819 38 821 7 q 845 106 822 65 q 884 174 868 148 q 895 179 888 179 q 905 174 901 179 q 944 106 921 148 q 970 38 967 65 m 894 -42 q 838 -18 860 -41 q 815 38 815 4 q 838 104 817 64 q 880 176 860 145 q 895 183 886 183 q 907 176 903 183 q 950 104 928 145 q 974 38 972 64 q 950 -18 972 4 q 894 -42 928 -41 m 894 174 q 888 171 891 174 q 849 105 872 146 q 825 38 826 64 q 844 -12 825 8 q 894 -31 864 -31 q 944 -12 924 -31 q 964 38 964 8 q 947 89 964 54 q 901 171 930 123 q 894 174 898 174 m 1050 937 q 981 926 1013 936 q 852 1037 929 996 q 684 1078 776 1078 q 516 1039 591 1078 q 389 932 441 1000 q 339 936 365 936 q 163 865 233 935 q 91 689 94 795 q 163 515 94 585 q 339 442 233 445 q 420 456 382 442 q 538 375 471 404 q 684 346 605 346 q 832 377 764 346 q 951 463 901 408 q 1050 442 997 442 q 1225 515 1156 445 q 1298 689 1295 585 q 1225 865 1295 795 q 1050 936 1156 935 l 1050 937 m 684 340 q 540 369 608 340 q 419 450 472 397 q 339 437 380 437 q 161 511 232 439 q 87 689 90 582 q 161 867 90 796 q 339 941 232 939 q 388 936 363 941 q 518 1044 442 1006 q 683 1082 594 1082 q 850 1043 772 1082 q 982 932 928 1004 q 1051 941 1016 941 q 1228 867 1157 939 q 1302 689 1299 796 q 1228 511 1299 582 q 1051 437 1157 439 q 952 457 1000 437 q 830 370 899 400 q 684 340 761 340 m 422 461 l 423 460 q 543 378 476 406 q 684 350 609 350 q 827 380 760 350 q 948 465 895 410 l 951 468 l 954 467 q 1050 446 1000 446 q 1221 517 1153 449 q 1293 689 1290 586 q 1221 861 1290 792 q 1050 932 1153 929 q 981 921 1016 932 l 978 921 l 977 924 q 847 1034 924 994 q 683 1073 770 1073 q 521 1036 595 1073 q 393 928 446 998 l 392 926 l 389 926 q 339 932 363 932 q 168 861 236 929 q 96 689 99 792 q 168 517 99 586 q 339 446 236 449 q 419 460 380 446 l 422 461 z "},"":{"ha":1389,"x_min":0,"x_max":1303,"o":"m 1051 975 q 981 964 1013 975 q 852 1076 929 1035 q 684 1116 776 1116 q 517 1077 593 1116 q 389 970 441 1038 q 339 975 365 975 q 163 903 233 972 q 92 727 94 833 q 163 553 94 623 q 339 480 233 483 q 420 494 382 480 q 538 413 471 442 q 684 384 605 384 q 832 415 764 384 q 952 500 901 446 q 1051 480 997 480 q 1225 553 1156 483 q 1298 727 1295 623 q 1225 903 1295 833 q 1051 975 1156 972 m 684 378 q 541 407 608 378 q 419 488 473 435 q 339 476 380 476 q 161 549 232 479 q 87 727 90 620 q 161 905 90 834 q 339 979 232 977 q 388 975 363 979 q 518 1083 442 1046 q 683 1120 594 1120 q 850 1081 772 1120 q 982 970 928 1042 q 1051 979 1016 979 q 1228 905 1157 977 q 1302 727 1299 834 q 1228 549 1299 620 q 1051 476 1157 479 q 954 495 1000 476 q 829 409 899 439 q 684 378 760 378 m 422 499 l 425 498 q 543 416 476 445 q 684 388 609 388 q 827 418 760 388 q 948 503 895 448 l 951 506 l 954 505 q 1051 484 1000 484 q 1223 555 1154 487 q 1294 727 1291 624 q 1222 899 1291 830 q 1051 970 1153 967 q 982 960 1016 970 l 978 959 l 977 962 q 848 1072 925 1032 q 684 1111 770 1111 q 522 1074 597 1111 q 393 967 446 1036 l 392 964 l 389 964 q 339 970 365 970 q 168 899 236 967 q 96 727 99 830 q 168 555 99 624 q 339 484 236 487 q 419 499 380 484 l 422 499 m 857 60 l 793 96 l 795 153 l 859 190 q 871 206 868 195 q 869 227 875 217 q 852 240 863 237 q 831 237 841 243 l 769 205 l 709 236 l 709 304 q 701 323 709 316 q 681 331 693 331 q 661 323 669 331 q 652 304 652 316 l 652 233 l 608 203 l 548 240 q 528 243 537 245 q 512 230 518 240 q 509 209 506 220 q 522 191 513 198 l 593 152 l 593 103 l 522 62 q 509 45 511 56 q 512 24 506 34 q 529 11 518 14 q 549 14 540 8 l 617 53 q 624 58 621 56 l 659 37 q 655 32 658 34 q 652 27 652 30 l 652 -52 q 661 -72 652 -64 q 681 -80 669 -80 q 701 -72 693 -80 q 709 -52 709 -64 l 709 27 l 712 33 l 754 56 q 761 52 757 53 l 830 12 q 850 9 840 7 q 867 22 861 12 q 871 43 873 33 q 857 60 868 54 m 685 136 m 654 136 q 669 109 654 118 q 700 109 685 100 q 716 134 715 118 q 707 157 716 148 q 685 165 699 165 q 663 157 671 165 q 654 136 654 148 m 373 190 l 339 220 l 347 254 l 391 267 q 401 276 397 270 q 401 289 404 282 q 393 298 399 296 q 380 300 387 301 l 342 288 l 312 315 l 321 354 q 308 374 323 370 q 289 362 293 377 l 279 320 l 244 309 l 212 339 q 199 343 206 343 q 188 338 193 343 q 183 326 183 332 q 189 313 183 319 l 225 279 l 218 251 l 171 236 q 161 227 164 233 q 159 214 157 221 q 168 204 161 208 q 180 203 174 201 l 227 217 l 232 220 l 254 201 q 251 195 252 198 l 241 148 q 254 130 239 133 q 274 141 269 126 l 283 189 l 283 191 l 311 201 l 313 197 l 349 164 q 361 159 354 159 q 373 165 368 160 q 378 178 378 171 q 373 189 377 184 l 373 190 m 278 258 m 259 258 q 269 241 260 247 q 288 241 278 236 q 297 258 297 247 q 288 274 297 269 q 269 274 278 279 q 259 258 260 269 m 1211 146 l 1171 165 l 1166 199 l 1204 227 q 1211 237 1210 231 q 1207 250 1211 244 q 1196 256 1203 255 q 1184 254 1190 258 l 1152 231 l 1115 245 l 1111 288 q 1092 302 1108 302 q 1077 283 1077 300 l 1082 240 l 1053 220 l 1012 237 q 999 238 1005 240 q 989 229 993 236 q 989 216 986 222 q 998 206 991 210 l 1043 186 l 1046 156 l 1005 127 q 998 115 1000 122 q 1001 103 997 109 q 1012 96 1005 98 q 1025 99 1019 95 l 1065 127 q 1067 132 1066 129 l 1095 119 q 1095 114 1095 117 l 1100 65 q 1118 50 1103 50 q 1133 69 1133 53 l 1128 118 l 1127 121 l 1150 137 l 1153 136 l 1198 115 q 1211 115 1204 113 q 1219 123 1217 117 q 1220 137 1222 130 q 1211 146 1218 144 m 1101 182 m 1081 182 q 1088 168 1082 174 q 1101 163 1093 163 q 1114 168 1108 163 q 1119 182 1119 174 q 1114 195 1119 190 q 1101 201 1108 201 q 1088 195 1093 201 q 1081 182 1082 190 z "},"":{"ha":1389,"x_min":0,"x_max":1302,"o":"m 684 713 m 373 713 q 414 558 373 629 q 528 445 456 487 q 683 403 601 403 q 838 445 765 403 q 952 558 911 487 q 994 713 993 629 q 903 932 990 845 q 684 1024 815 1020 q 463 932 551 1020 q 373 713 376 845 m 1051 690 m 873 690 q 925 566 875 616 q 1051 514 975 515 q 1176 566 1126 515 q 1227 690 1226 616 q 1176 817 1226 766 q 1051 868 1126 867 q 925 817 975 867 q 873 690 875 766 m 339 690 m 151 690 q 206 557 153 610 q 339 503 259 505 q 472 557 419 505 q 528 690 525 610 q 472 823 525 770 q 339 879 419 876 q 206 823 259 876 q 151 690 153 770 m 1051 939 q 981 928 1013 937 q 852 1039 929 998 q 684 1080 776 1080 q 517 1040 593 1080 q 389 933 441 1001 q 339 939 365 939 q 165 866 235 936 q 92 690 95 796 q 165 516 95 586 q 339 444 235 446 q 420 457 382 444 q 538 376 471 406 q 684 347 605 347 q 832 378 764 347 q 952 464 901 410 q 1051 444 997 444 q 1225 516 1156 446 q 1298 690 1295 586 q 1225 866 1295 796 q 1051 939 1156 936 m 1051 514 q 945 548 990 514 q 835 443 903 481 q 684 403 766 404 q 542 437 606 404 q 434 529 477 471 q 339 503 392 503 q 206 557 259 505 q 151 690 153 610 q 206 823 153 770 q 339 879 259 876 q 412 864 378 879 q 524 979 453 936 q 684 1024 594 1023 q 851 974 777 1023 q 964 845 925 925 q 1050 868 1002 867 q 1176 816 1126 865 q 1227 690 1226 766 q 1176 566 1226 616 q 1051 514 1126 515 m 682 342 q 540 370 608 342 q 419 452 472 399 q 339 439 380 439 q 161 513 232 442 q 87 690 90 583 q 161 869 90 798 q 339 943 232 940 q 388 939 363 943 q 518 1046 442 1008 q 683 1084 594 1084 q 850 1044 772 1084 q 982 933 928 1005 q 1050 943 1016 943 q 1228 869 1157 940 q 1302 690 1299 798 q 1228 513 1299 583 q 1050 439 1157 442 q 952 458 1000 439 q 829 372 898 401 q 682 342 761 342 m 422 463 l 423 461 q 543 380 476 408 q 684 351 609 351 q 827 381 760 351 q 948 467 895 411 l 951 469 l 954 468 q 1050 448 1000 448 q 1221 519 1153 450 q 1293 690 1290 587 q 1221 862 1290 793 q 1050 933 1153 930 q 981 924 1016 933 l 978 922 l 977 925 q 847 1035 924 996 q 683 1074 770 1074 q 521 1037 595 1074 q 393 930 446 1000 l 392 928 l 388 928 q 339 933 363 933 q 168 862 236 930 q 96 690 99 793 q 168 519 99 587 q 339 448 236 450 q 419 461 380 448 l 422 463 m 682 399 q 543 431 608 399 q 433 522 479 463 q 339 498 388 498 q 203 555 258 500 q 146 690 148 609 q 202 827 148 773 q 339 884 256 882 q 410 871 376 884 q 525 986 453 944 q 682 1029 597 1028 q 850 981 774 1028 q 966 852 925 933 q 1050 873 1005 872 q 1179 819 1127 871 q 1233 690 1230 768 q 1179 562 1230 613 q 1050 509 1127 510 q 947 541 993 509 q 833 436 902 473 q 682 399 764 399 m 435 534 l 437 532 q 545 440 481 472 q 682 408 609 408 q 830 446 762 408 q 941 551 898 483 l 944 555 l 948 552 q 1050 518 994 518 q 1172 568 1123 519 q 1223 690 1221 617 q 1172 812 1221 764 q 1050 864 1123 861 q 966 841 1005 863 l 962 838 l 959 844 q 846 972 920 925 q 682 1019 773 1019 q 528 977 598 1019 q 415 861 457 936 l 414 859 l 410 860 q 339 873 376 873 q 209 821 260 872 q 156 690 157 769 q 209 561 157 613 q 339 507 260 509 q 431 533 388 507 l 435 534 m 964 845 q 898 781 922 822 q 873 690 873 741 q 893 610 873 647 q 945 548 913 572 q 994 713 993 621 q 964 845 993 785 m 528 690 q 495 796 526 750 q 412 864 464 842 q 373 713 373 796 q 389 614 373 661 q 434 529 406 567 q 501 596 476 553 q 528 690 526 639 m 373 153 l 339 183 l 347 217 l 391 231 q 401 239 397 233 q 401 252 404 245 q 393 262 399 259 q 380 263 388 264 l 342 251 l 312 278 l 321 317 q 309 337 324 334 q 289 326 293 340 l 279 283 l 244 273 l 212 302 q 199 307 206 307 q 188 301 193 307 q 183 289 183 296 q 189 277 183 282 l 225 244 l 218 214 l 171 199 q 161 191 164 197 q 159 178 157 184 q 168 168 161 171 q 180 167 174 164 l 228 180 l 232 183 l 254 164 q 252 159 252 161 l 241 111 q 254 93 239 96 q 274 104 269 90 l 285 152 l 285 155 l 311 164 l 313 160 l 350 127 q 362 123 355 122 q 374 129 369 123 q 378 141 378 134 q 373 152 377 148 l 373 153 m 279 221 m 259 221 q 270 205 260 210 q 288 205 279 199 q 297 221 297 210 q 288 237 297 232 q 269 237 278 243 q 259 221 260 232 m 1211 110 l 1171 129 l 1166 163 l 1204 190 q 1211 201 1210 194 q 1207 214 1211 208 q 1196 220 1203 220 q 1184 217 1190 221 l 1152 194 l 1115 209 l 1111 251 q 1092 266 1108 266 q 1077 247 1077 263 l 1082 203 l 1053 183 l 1012 201 q 999 201 1005 203 q 989 193 993 199 q 989 180 986 186 q 998 170 991 174 l 1043 149 l 1046 119 l 1005 90 q 998 79 1000 85 q 1001 66 997 72 q 1012 60 1005 61 q 1025 62 1019 58 l 1065 91 q 1067 95 1066 92 l 1095 83 q 1095 77 1095 80 l 1100 28 q 1118 14 1103 14 q 1133 33 1133 16 l 1128 80 l 1127 84 l 1150 100 l 1153 99 l 1198 79 q 1211 78 1204 76 q 1219 87 1217 80 q 1211 110 1225 102 m 1101 145 m 1081 145 q 1088 132 1082 137 q 1101 126 1093 126 q 1114 132 1108 126 q 1119 145 1119 137 q 1114 159 1119 153 q 1101 164 1108 164 q 1088 159 1093 164 q 1081 145 1082 153 m 777 43 l 738 65 l 738 100 l 777 123 q 785 134 784 127 q 783 146 787 140 q 773 155 780 153 q 761 153 766 156 l 726 133 l 692 152 l 690 194 q 674 210 689 209 q 658 194 659 209 l 658 151 l 627 132 l 587 153 q 575 155 582 157 q 565 147 568 153 q 563 135 562 141 q 571 125 564 129 l 613 99 l 613 69 l 570 45 q 562 34 564 41 q 564 21 560 27 q 574 13 567 15 q 587 15 581 11 l 629 39 l 633 42 l 658 28 q 658 23 658 26 l 658 -26 q 674 -43 659 -41 q 692 -26 690 -41 l 692 23 l 690 26 l 715 41 l 718 38 l 760 14 q 773 12 766 9 q 783 20 780 14 q 785 33 787 26 q 777 43 783 39 m 670 90 m 651 90 q 661 73 652 79 q 680 73 670 68 q 689 90 689 79 q 680 106 689 100 q 661 106 670 111 q 651 90 652 100 z "},"":{"ha":1389,"x_min":0,"x_max":1302,"o":"m 860 551 m 639 551 q 703 395 642 457 q 860 330 765 332 q 1016 395 954 332 q 1080 551 1078 457 q 1016 707 1078 644 q 860 772 954 769 q 703 707 765 769 q 639 551 642 644 m 1120 534 m 994 534 q 1031 446 996 481 q 1121 410 1067 410 q 1210 446 1175 410 q 1245 535 1245 481 q 1210 624 1245 589 q 1121 659 1175 659 q 1031 624 1067 659 q 994 534 996 589 m 614 534 m 481 534 q 520 441 483 479 q 614 403 557 403 q 709 441 671 403 q 747 535 747 479 q 709 629 747 591 q 614 667 671 667 q 520 629 557 667 q 481 534 483 591 m 1120 711 q 1070 704 1095 711 q 980 782 1035 753 q 860 811 925 811 q 741 783 795 811 q 651 707 688 755 q 614 711 633 711 q 490 659 540 709 q 439 534 441 609 q 490 410 441 460 q 614 359 540 361 q 673 369 646 359 q 757 311 709 332 q 861 290 804 290 q 966 313 917 290 q 1050 374 1015 335 q 1120 359 1082 359 q 1245 410 1195 361 q 1297 534 1295 460 q 1245 659 1295 609 q 1120 711 1195 709 m 1120 408 q 1046 434 1078 410 q 968 359 1016 387 q 860 331 920 331 q 759 355 804 331 q 682 419 713 378 q 614 401 652 401 q 520 440 557 403 q 483 534 483 477 q 520 629 483 591 q 614 669 557 667 q 666 658 643 669 q 746 740 696 709 q 860 772 796 770 q 979 736 926 770 q 1059 644 1032 703 q 1120 661 1086 661 q 1210 624 1175 659 q 1245 535 1245 589 q 1210 446 1245 481 q 1120 408 1175 410 m 860 286 q 758 306 806 286 q 671 363 709 326 q 614 354 643 354 q 487 408 538 357 q 434 534 435 458 q 487 663 435 612 q 614 716 538 713 q 648 712 632 716 q 742 789 688 762 q 859 817 796 817 q 978 788 922 817 q 1073 709 1034 760 q 1120 716 1096 716 q 1249 663 1198 713 q 1301 534 1299 612 q 1249 408 1299 458 q 1120 354 1198 357 q 1051 368 1085 354 q 964 307 1013 328 q 860 286 914 286 m 671 374 l 677 373 q 760 315 713 335 q 861 296 807 296 q 962 317 914 296 q 1047 377 1009 338 l 1053 378 q 1120 363 1085 363 q 1242 414 1194 366 q 1291 534 1290 463 q 1242 656 1290 608 q 1120 707 1194 704 q 1072 699 1096 705 l 1066 701 q 975 779 1029 751 q 859 807 921 807 q 745 780 798 807 q 655 704 692 753 l 650 703 q 614 707 632 707 q 494 656 543 704 q 444 534 445 608 q 494 414 445 463 q 614 363 543 366 q 671 374 643 363 m 860 326 q 760 349 806 326 q 681 414 713 372 q 614 396 650 396 q 517 437 556 397 q 476 534 477 476 q 517 633 477 594 q 614 674 556 671 q 665 665 640 673 q 747 746 696 716 q 860 777 799 776 q 978 743 924 776 q 1061 651 1032 709 q 1120 666 1089 666 q 1213 627 1176 665 q 1251 534 1251 590 q 1213 442 1251 479 q 1120 404 1176 406 q 1047 426 1081 404 q 966 352 1015 378 q 860 326 917 326 m 680 425 l 686 423 q 762 358 718 381 q 860 335 807 335 q 964 361 916 335 q 1042 435 1012 388 l 1048 437 q 1120 414 1081 414 q 1206 449 1172 415 q 1241 534 1241 483 q 1206 621 1241 586 q 1120 656 1172 655 q 1062 640 1089 656 l 1055 643 q 975 733 1027 700 q 860 768 922 766 q 750 737 800 766 q 671 656 700 708 l 665 654 q 614 663 640 663 q 524 626 560 662 q 487 535 487 590 q 524 444 487 480 q 614 406 560 407 q 680 425 650 407 m 1059 646 q 1013 600 1029 628 q 994 534 996 571 q 1009 477 996 503 q 1046 434 1023 450 q 1081 551 1080 486 q 1059 644 1080 602 l 1059 646 m 749 534 q 725 610 747 578 q 666 658 703 643 q 639 551 639 610 q 682 419 640 476 q 730 468 712 438 q 749 534 747 498 m 381 574 q 369 557 381 564 q 338 551 357 551 l 210 551 q 180 557 191 551 q 167 574 168 563 l 167 591 q 180 608 168 601 q 210 614 193 614 l 338 614 q 369 608 357 614 q 381 591 381 601 l 381 574 m 381 574 m 338 541 l 210 541 q 173 550 187 541 q 157 574 159 559 l 157 591 q 173 614 159 605 q 210 624 187 624 l 338 624 q 376 614 361 624 q 391 591 391 605 l 391 574 q 376 550 391 559 q 338 541 361 541 m 210 605 q 186 600 194 604 q 176 591 178 595 l 176 574 q 186 565 178 570 q 210 560 194 560 l 338 560 q 363 565 354 560 q 372 574 372 570 l 372 591 q 363 600 372 595 q 338 605 354 604 l 210 605 m 323 425 q 311 408 323 415 q 281 401 298 401 l 152 401 q 122 408 134 401 q 110 425 110 415 l 110 442 q 122 458 110 452 q 152 465 134 465 l 281 465 q 311 458 298 465 q 323 442 323 452 l 323 425 m 323 425 m 281 392 l 152 392 q 115 401 129 392 q 100 425 100 411 l 100 442 q 115 466 100 457 q 152 475 129 475 l 281 475 q 318 466 304 475 q 332 442 332 457 l 332 425 q 318 401 332 411 q 281 392 304 392 m 152 456 q 128 451 137 456 q 119 442 119 446 l 119 425 q 128 416 119 420 q 152 411 137 411 l 281 411 q 304 416 296 411 q 313 425 313 420 l 313 442 q 304 451 313 446 q 281 456 296 456 l 152 456 m 452 258 q 444 241 450 248 q 429 235 438 235 l 119 235 q 104 241 110 235 q 98 258 98 248 l 98 275 q 104 292 98 285 q 119 298 110 298 l 429 298 q 445 292 438 298 q 452 275 452 285 l 452 258 m 452 258 m 429 225 l 119 225 q 97 235 106 225 q 88 258 88 244 l 88 275 q 97 298 88 289 q 119 308 106 308 l 429 308 q 452 298 442 308 q 461 275 461 289 l 461 258 q 451 235 460 244 q 429 225 442 225 m 119 289 q 107 275 109 288 l 107 258 q 119 244 107 245 l 429 244 q 442 258 441 245 l 442 275 q 429 289 441 288 l 119 289 z "},"":{"ha":1389,"x_min":0,"x_max":1303,"o":"m 751 491 l 684 283 l 751 202 l 540 -26 q 540 -26 540 -27 l 616 193 l 538 267 l 751 491 q 751 491 751 491 m 540 -31 l 537 -31 l 534 -27 l 610 191 l 532 267 l 749 495 l 753 496 l 757 492 l 689 285 l 758 202 l 543 -31 l 540 -31 m 545 267 l 621 194 l 551 -8 l 746 202 l 678 282 l 741 473 l 545 267 m 684 701 m 373 701 q 414 547 373 617 q 528 433 456 476 q 683 391 601 391 q 838 433 765 391 q 952 547 911 476 q 994 701 993 617 q 903 922 990 834 q 684 1012 815 1009 q 463 922 551 1009 q 373 701 376 834 m 1051 680 m 873 680 q 925 553 875 604 q 1051 502 975 503 q 1176 553 1126 503 q 1227 680 1226 604 q 1176 804 1226 754 q 1051 856 1126 854 q 925 804 975 854 q 873 680 875 754 m 339 680 m 151 680 q 206 546 153 600 q 339 491 259 492 q 472 546 419 492 q 528 680 525 600 q 472 812 525 758 q 339 867 419 865 q 206 812 259 865 q 151 680 153 758 m 1051 926 q 981 916 1013 926 q 852 1027 929 986 q 684 1067 776 1067 q 517 1028 593 1067 q 389 921 441 989 q 339 926 365 926 q 165 854 235 924 q 92 680 95 784 q 165 504 95 574 q 339 431 235 434 q 420 446 382 433 q 538 365 471 395 q 684 335 605 335 q 832 366 764 335 q 952 453 901 397 q 1051 431 997 433 q 1225 504 1156 434 q 1298 680 1295 574 q 1225 854 1295 784 q 1051 926 1156 924 m 1051 502 q 945 536 990 503 q 835 431 903 469 q 684 391 766 392 q 542 425 606 392 q 434 517 477 458 q 339 491 392 491 q 206 546 259 492 q 151 680 153 600 q 206 812 153 760 q 339 867 259 865 q 412 852 378 867 q 524 968 453 925 q 684 1012 594 1010 q 851 962 777 1010 q 964 834 925 914 q 1051 856 1002 856 q 1176 804 1126 854 q 1227 678 1226 754 q 1176 553 1226 604 q 1051 502 1126 503 m 682 331 q 540 359 608 331 q 419 441 472 387 q 339 427 380 427 q 161 501 232 430 q 87 680 90 572 q 161 857 90 785 q 339 930 232 928 q 388 926 363 930 q 518 1035 442 997 q 683 1073 594 1073 q 850 1033 772 1073 q 982 921 928 993 q 1050 932 1016 930 q 1228 857 1157 928 q 1302 680 1299 787 q 1228 501 1299 572 q 1050 427 1157 430 q 952 448 1000 427 q 830 361 899 391 q 682 331 761 331 m 419 450 l 423 449 q 543 368 476 396 q 684 340 609 340 q 827 370 760 340 q 948 456 895 399 l 954 457 q 1050 437 1000 437 q 1221 508 1153 439 q 1293 680 1290 576 q 1221 850 1290 781 q 1050 922 1153 920 q 981 911 1016 922 l 977 913 q 847 1024 924 985 q 683 1063 770 1063 q 521 1025 595 1063 q 393 918 446 987 l 389 917 q 339 921 363 921 q 168 850 236 918 q 96 678 99 781 q 168 508 99 576 q 339 437 236 439 q 419 450 380 437 m 682 387 q 543 419 608 387 q 433 511 479 452 q 339 487 388 487 q 203 543 258 488 q 146 680 148 597 q 202 815 148 761 q 339 872 256 869 q 410 859 376 872 q 525 975 453 933 q 682 1017 597 1016 q 850 969 774 1016 q 966 841 925 922 q 1050 861 1005 861 q 1179 808 1127 859 q 1233 680 1230 757 q 1179 551 1230 602 q 1050 498 1127 499 q 947 530 993 498 q 833 424 902 461 q 682 387 764 387 m 431 521 l 437 519 q 545 428 481 460 q 682 396 609 396 q 830 433 762 396 q 941 538 898 471 l 948 540 q 1050 506 994 507 q 1172 557 1123 509 q 1222 680 1221 606 q 1172 802 1221 753 q 1050 852 1123 850 q 966 830 1005 852 l 959 831 q 846 960 920 913 q 682 1008 773 1006 q 528 965 598 1006 q 415 850 457 924 l 410 848 q 339 863 376 863 q 209 808 260 860 q 156 680 157 757 q 209 549 157 601 q 339 495 260 498 q 431 521 388 496 m 964 834 q 898 770 922 810 q 873 680 873 730 q 893 598 873 635 q 945 536 913 562 q 994 701 993 609 q 964 834 993 773 m 528 680 q 495 784 526 738 q 412 852 464 830 q 373 701 373 784 q 389 603 373 650 q 434 517 406 556 q 501 585 476 543 q 528 680 526 627 z "},"":{"ha":1389,"x_min":0,"x_max":1303,"o":"m 836 840 m 612 840 q 642 728 612 780 q 724 647 671 677 q 835 617 776 617 q 947 647 894 617 q 1029 728 1000 677 q 1058 840 1058 780 q 994 998 1057 935 q 836 1063 930 1061 q 677 998 741 1061 q 612 840 614 935 m 1100 823 m 971 823 q 989 760 972 789 q 1036 713 1005 731 q 1099 696 1066 696 q 1163 713 1133 696 q 1210 760 1194 731 q 1227 823 1226 789 q 1190 913 1226 878 q 1099 949 1153 949 q 1009 913 1046 949 q 971 823 972 878 m 587 823 m 453 823 q 471 756 453 787 q 520 707 488 726 q 588 689 552 689 q 656 707 624 689 q 705 756 688 726 q 723 823 723 787 q 705 891 723 860 q 656 941 688 922 q 588 959 624 959 q 520 941 552 959 q 471 891 488 922 q 453 823 453 860 m 1100 1001 q 1048 994 1073 1001 q 957 1074 1012 1044 q 836 1103 902 1103 q 715 1075 770 1103 q 624 998 661 1047 q 587 1001 606 1001 q 463 949 513 1000 q 410 823 412 899 q 463 699 412 749 q 587 646 513 648 q 647 656 618 646 q 731 597 682 618 q 836 576 780 576 q 942 599 892 576 q 1028 661 991 621 q 1100 646 1061 646 q 1225 699 1175 648 q 1278 823 1275 749 q 1225 949 1275 899 q 1100 1001 1175 1000 m 1100 696 q 1024 722 1057 697 q 944 645 993 673 q 836 617 895 617 q 733 642 780 617 q 655 707 686 666 q 587 689 625 689 q 492 728 530 690 q 454 824 454 766 q 492 920 454 882 q 587 959 530 958 q 640 948 616 959 q 720 1032 669 1001 q 836 1063 772 1063 q 956 1027 903 1062 q 1038 936 1009 993 q 1100 952 1065 951 q 1190 915 1153 951 q 1226 824 1226 879 q 1190 733 1226 769 q 1100 696 1154 697 m 836 571 q 732 592 781 572 q 646 651 684 612 q 587 642 617 642 q 458 694 510 643 q 406 823 407 746 q 458 952 407 901 q 587 1006 510 1004 q 623 1002 605 1006 q 716 1081 661 1054 q 836 1108 772 1108 q 956 1080 899 1108 q 1050 1000 1012 1051 q 1099 1006 1074 1006 q 1229 952 1177 1004 q 1282 823 1280 901 q 1229 694 1280 746 q 1099 642 1177 643 q 1029 655 1063 642 q 940 593 990 614 q 836 571 890 572 m 644 661 l 650 659 q 734 602 686 621 q 836 582 781 582 q 939 603 890 582 q 1024 665 987 624 l 1029 665 q 1099 651 1063 651 q 1221 701 1172 652 q 1272 823 1271 750 q 1222 947 1271 898 q 1099 997 1173 996 q 1050 990 1074 997 l 1044 991 q 953 1071 1008 1043 q 836 1099 898 1099 q 720 1072 773 1099 q 628 996 666 1044 l 623 993 q 587 997 605 997 q 465 946 514 996 q 415 823 416 897 q 465 701 416 750 q 587 651 514 652 q 644 661 616 651 m 836 612 q 734 635 781 612 q 655 701 688 658 q 587 684 623 684 q 488 724 528 685 q 448 823 449 764 q 488 922 449 883 q 587 963 528 962 q 637 954 613 963 q 721 1038 669 1008 q 836 1067 773 1067 q 955 1034 901 1067 q 1039 941 1009 1000 q 1099 956 1067 956 q 1193 918 1156 955 q 1230 824 1230 880 q 1193 730 1230 768 q 1099 692 1156 693 q 1025 715 1058 692 q 943 639 993 666 q 836 612 894 612 m 654 711 l 659 709 q 737 644 692 667 q 836 621 783 621 q 941 648 892 621 q 1020 723 989 675 l 1027 724 q 1099 701 1059 701 q 1186 737 1152 703 q 1221 824 1221 772 q 1186 911 1221 876 q 1099 947 1152 945 q 1039 930 1067 947 l 1032 933 q 952 1024 1005 990 q 836 1058 899 1058 q 724 1028 774 1058 q 644 945 674 998 l 637 944 q 587 954 614 954 q 495 916 532 952 q 458 823 458 879 q 495 731 458 768 q 587 693 532 694 q 654 711 623 693 m 1038 935 q 990 889 1008 918 q 972 823 972 860 q 986 766 972 792 q 1024 722 1000 739 q 1058 840 1058 773 q 1038 935 1058 891 m 723 823 q 700 899 723 867 q 640 948 677 932 q 612 840 613 899 q 656 707 613 764 q 705 755 686 726 q 723 823 723 785 m 773 273 l 705 138 l 773 85 l 562 -62 q 562 -61 562 -62 l 637 80 l 560 129 l 773 274 l 773 273 m 562 -66 l 559 -66 l 556 -62 l 632 77 l 552 127 l 772 278 l 776 278 l 779 273 l 712 140 l 781 85 l 563 -66 l 562 -66 m 570 129 l 644 81 l 574 -47 l 766 85 l 700 138 l 761 260 l 570 129 m 684 530 m 373 530 q 463 310 376 397 q 682 220 551 222 q 903 310 815 222 q 994 530 990 397 q 903 749 990 662 q 684 841 815 837 q 463 749 551 837 q 373 530 376 662 m 1051 507 m 873 507 q 925 382 875 431 q 1051 330 975 332 q 1176 382 1126 332 q 1227 507 1226 431 q 1176 633 1226 583 q 1051 685 1126 682 q 925 633 975 682 q 873 507 875 583 m 339 507 m 151 507 q 176 413 152 456 q 245 345 201 370 q 338 319 289 319 q 433 345 388 319 q 502 413 477 370 q 526 507 526 456 q 472 640 525 587 q 339 696 419 693 q 206 640 259 693 q 151 507 153 587 m 1051 754 q 981 745 1013 754 q 852 854 929 814 q 684 895 776 895 q 516 856 591 895 q 389 749 441 817 q 339 754 365 754 q 163 682 233 751 q 91 507 94 612 q 163 332 94 401 q 339 259 233 262 q 420 274 382 260 q 538 193 471 222 q 684 164 605 164 q 832 195 764 164 q 952 281 901 227 q 1051 259 997 260 q 1225 332 1156 262 q 1298 507 1295 401 q 1225 682 1295 612 q 1051 754 1156 751 m 1051 330 q 945 365 990 331 q 835 259 903 298 q 684 220 766 220 q 542 254 606 220 q 434 345 477 288 q 339 319 392 320 q 206 374 259 321 q 151 507 153 427 q 206 640 153 587 q 339 694 259 693 q 412 681 378 694 q 524 796 453 753 q 684 840 594 840 q 851 791 777 840 q 964 662 925 742 q 1051 685 1002 684 q 1176 632 1126 682 q 1227 507 1226 582 q 1176 382 1226 431 q 1051 330 1126 332 m 682 159 q 540 187 608 159 q 419 269 472 216 q 339 255 380 255 q 161 329 232 258 q 87 507 90 400 q 161 686 90 614 q 339 760 232 757 q 388 754 363 760 q 518 863 442 825 q 683 901 594 901 q 850 861 772 901 q 982 750 928 822 q 1050 760 1016 760 q 1228 686 1157 757 q 1302 507 1299 614 q 1228 329 1299 400 q 1050 255 1157 258 q 952 275 1000 255 q 830 189 899 218 q 682 159 761 159 m 419 278 l 423 278 q 543 196 476 224 q 684 168 609 168 q 827 198 760 168 q 948 283 895 228 l 954 285 q 1050 264 1000 264 q 1221 336 1153 267 q 1293 507 1290 404 q 1221 679 1290 610 q 1050 750 1153 747 q 981 739 1015 750 l 977 742 q 847 852 924 812 q 683 891 770 891 q 521 854 595 891 q 393 746 446 817 l 388 745 q 339 750 363 750 q 168 679 236 747 q 96 507 99 610 q 168 336 99 404 q 339 264 236 267 q 419 278 380 264 m 682 214 q 543 247 608 214 q 433 339 479 279 q 339 315 388 315 q 202 371 256 316 q 146 507 148 426 q 202 644 148 589 q 339 700 256 699 q 410 686 376 700 q 525 803 453 761 q 682 845 597 845 q 850 797 774 844 q 966 669 925 750 q 1050 689 1005 689 q 1179 636 1127 688 q 1233 507 1230 585 q 1179 378 1230 430 q 1050 326 1127 327 q 947 358 993 326 q 833 253 902 290 q 682 214 764 216 m 431 349 l 437 349 q 545 256 481 289 q 682 224 609 224 q 830 262 762 225 q 941 368 898 300 l 948 369 q 1050 335 994 335 q 1172 385 1123 336 q 1223 507 1221 434 q 1172 629 1221 581 q 1050 680 1123 678 q 966 658 1005 680 l 959 661 q 846 787 920 741 q 682 836 773 834 q 528 793 598 836 q 415 678 457 751 l 410 677 q 339 690 376 690 q 209 637 260 689 q 156 507 157 585 q 209 378 157 430 q 339 324 260 326 q 431 349 388 324 m 964 662 q 898 598 922 639 q 873 507 873 557 q 892 426 873 463 q 945 365 911 389 q 993 530 991 437 q 964 662 993 601 m 528 507 q 495 613 526 567 q 412 681 464 659 q 373 530 373 613 q 389 431 373 477 q 434 346 404 384 q 501 412 476 370 q 528 507 526 454 z "},"":{"ha":1389,"x_min":0,"x_max":1303,"o":"m 684 741 m 373 741 q 463 522 376 609 q 682 430 551 434 q 903 522 815 434 q 994 741 990 609 q 903 960 990 872 q 684 1051 815 1048 q 463 960 551 1048 q 373 741 376 872 m 1050 718 m 873 718 q 925 593 875 643 q 1050 541 975 543 q 1176 593 1126 543 q 1227 718 1226 643 q 1176 844 1226 793 q 1050 895 1126 894 q 925 844 975 894 q 873 718 875 793 m 339 718 m 151 718 q 176 624 152 667 q 245 555 201 581 q 338 530 289 530 q 433 555 388 530 q 502 624 477 581 q 526 718 526 667 q 472 851 525 798 q 339 906 419 905 q 206 851 259 905 q 151 718 153 798 m 1050 966 q 981 955 1013 966 q 852 1066 929 1025 q 684 1107 776 1107 q 516 1067 591 1107 q 389 960 441 1028 q 339 966 365 966 q 163 893 233 963 q 91 718 94 823 q 163 543 94 613 q 339 471 233 473 q 420 484 382 471 q 538 404 471 433 q 684 374 605 374 q 832 406 764 374 q 951 491 901 437 q 1050 471 997 471 q 1225 543 1156 473 q 1298 718 1295 613 q 1225 893 1295 823 q 1050 966 1156 963 m 1050 541 q 945 575 990 541 q 835 470 903 509 q 684 430 766 431 q 542 465 606 431 q 434 556 477 498 q 339 530 392 530 q 206 585 259 532 q 151 718 153 637 q 206 850 153 798 q 339 906 259 903 q 411 891 377 906 q 523 1007 452 964 q 684 1051 594 1050 q 851 1002 777 1050 q 964 872 925 954 q 1051 895 1002 895 q 1176 844 1126 894 q 1227 718 1226 793 q 1176 593 1226 643 q 1050 541 1126 543 m 682 369 q 540 397 608 369 q 419 479 472 426 q 339 467 380 467 q 161 540 232 469 q 87 718 90 610 q 161 896 90 825 q 339 970 232 967 q 388 966 363 970 q 518 1074 442 1036 q 683 1111 594 1111 q 850 1072 772 1111 q 982 960 928 1032 q 1050 970 1016 970 q 1228 896 1157 967 q 1302 718 1299 825 q 1228 540 1299 610 q 1050 465 1157 469 q 952 486 1000 467 q 829 399 899 430 q 682 369 760 369 m 419 490 l 423 488 q 543 407 476 435 q 684 378 609 378 q 827 408 760 378 q 948 495 895 438 l 954 496 q 1050 476 1000 476 q 1221 547 1153 477 q 1293 718 1290 616 q 1221 889 1290 821 q 1050 960 1153 958 q 981 951 1016 960 l 977 952 q 847 1063 924 1024 q 683 1103 770 1103 q 521 1065 595 1103 q 393 958 446 1027 l 388 956 q 339 960 363 960 q 168 889 236 958 q 96 718 99 821 q 168 546 99 614 q 339 476 236 477 q 419 490 380 475 m 682 426 q 543 458 608 426 q 433 549 479 490 q 339 525 388 526 q 203 582 258 528 q 146 719 148 636 q 202 854 148 800 q 339 911 256 909 q 410 898 376 911 q 525 1013 453 971 q 684 1057 597 1055 q 850 1008 774 1055 q 966 879 925 960 q 1050 901 1005 901 q 1179 847 1127 898 q 1233 719 1230 796 q 1179 589 1230 640 q 1050 536 1127 538 q 947 568 994 536 q 833 463 902 500 q 682 426 764 426 m 431 560 l 437 559 q 545 467 481 499 q 682 435 609 435 q 830 473 762 435 q 941 578 898 510 l 948 579 q 1050 545 994 545 q 1172 595 1123 547 q 1223 718 1221 644 q 1172 840 1221 791 q 1050 891 1123 888 q 966 869 1005 891 l 959 871 q 846 999 920 952 q 682 1047 773 1046 q 528 1004 598 1046 q 415 890 457 963 l 410 887 q 339 902 376 902 q 209 848 260 899 q 156 718 157 796 q 209 589 157 640 q 339 534 260 537 q 431 560 388 534 m 964 872 q 898 809 922 849 q 873 718 873 769 q 892 637 873 674 q 945 575 911 600 q 993 741 991 648 q 964 872 993 812 m 526 718 q 494 823 526 777 q 411 891 463 869 q 373 741 373 823 q 389 642 373 689 q 434 556 404 595 q 501 623 476 581 q 526 718 526 666 m 857 69 l 793 106 l 793 161 l 859 199 q 871 216 868 205 q 869 237 875 227 q 852 250 863 247 q 831 247 841 252 l 769 214 l 708 245 l 708 313 q 700 332 708 324 q 680 340 692 340 q 661 332 669 340 q 652 313 652 324 l 652 243 l 608 213 l 548 250 q 527 252 537 255 q 511 239 517 250 q 509 218 506 229 q 522 201 511 208 l 593 161 l 593 111 l 522 71 q 509 54 511 65 q 512 33 506 43 q 528 20 518 23 q 549 23 538 18 l 617 62 q 624 68 621 65 l 659 46 q 655 41 658 43 q 652 37 652 38 l 652 -43 q 661 -62 652 -54 q 680 -71 669 -71 q 700 -62 692 -71 q 708 -43 708 -54 l 708 37 q 710 39 708 38 q 712 42 712 41 l 754 65 q 761 61 757 62 l 829 22 q 850 18 840 15 q 867 32 861 22 q 869 53 872 42 q 857 69 867 64 m 685 144 m 654 144 q 663 123 654 132 q 685 114 671 114 q 707 123 699 114 q 715 144 715 132 q 707 166 715 157 q 685 175 699 175 q 663 166 671 175 q 654 144 654 157 z "},"":{"ha":1389,"x_min":0,"x_max":1302,"o":"m 682 685 m 372 685 q 463 466 376 553 q 682 374 551 378 q 901 466 814 378 q 993 685 989 553 q 901 904 989 817 q 682 996 814 991 q 463 904 551 991 q 372 685 376 817 m 1050 662 m 872 662 q 924 537 873 587 q 1050 486 974 487 q 1175 537 1124 487 q 1226 662 1225 587 q 1175 788 1225 738 q 1050 840 1124 838 q 924 788 974 838 q 872 662 873 738 m 338 662 m 151 662 q 205 529 152 582 q 338 475 259 476 q 471 529 418 476 q 526 662 524 582 q 471 795 524 742 q 338 850 418 848 q 205 795 259 848 q 151 662 152 742 m 1050 910 q 979 899 1013 909 q 851 1009 928 968 q 683 1050 774 1050 q 515 1011 591 1050 q 389 905 439 972 q 338 910 365 909 q 163 838 233 907 q 91 662 94 768 q 163 488 94 557 q 338 415 233 418 q 420 430 381 415 q 538 348 471 377 q 684 319 605 319 q 831 350 762 319 q 951 435 899 381 q 1050 415 996 415 q 1224 488 1154 418 q 1297 662 1294 557 q 1224 838 1294 768 q 1050 910 1154 907 m 1050 486 q 944 519 989 486 q 834 414 902 453 q 682 374 766 376 q 541 409 605 376 q 433 500 476 442 q 338 475 391 475 q 205 529 258 476 q 151 662 152 582 q 205 795 152 742 q 338 850 258 848 q 411 836 377 850 q 523 951 452 907 q 682 996 594 994 q 850 945 776 994 q 963 817 924 897 q 1050 840 1001 840 q 1175 788 1124 838 q 1226 662 1225 738 q 1175 537 1225 587 q 1050 486 1124 487 m 682 313 q 540 342 608 313 q 419 423 472 370 q 339 411 380 411 q 161 484 232 414 q 87 662 90 555 q 161 840 90 769 q 339 914 232 911 q 388 909 363 914 q 518 1017 442 979 q 683 1055 594 1055 q 850 1016 772 1055 q 982 905 928 977 q 1050 914 1016 914 q 1228 840 1157 911 q 1302 662 1299 769 q 1228 484 1299 555 q 1050 411 1157 414 q 952 430 1000 411 q 829 343 898 373 q 682 313 761 313 m 422 434 l 425 433 q 543 351 476 380 q 684 323 609 323 q 827 353 760 323 q 948 439 895 382 l 949 441 l 954 439 q 1050 419 1000 419 q 1221 490 1153 422 q 1293 662 1290 559 q 1221 833 1290 765 q 1050 905 1153 902 q 981 895 1015 905 l 978 894 l 977 897 q 847 1006 924 967 q 683 1046 770 1046 q 521 1008 595 1046 q 393 902 446 971 l 392 899 l 389 899 q 339 905 365 905 q 168 833 236 902 q 96 662 99 765 q 168 492 99 560 q 339 420 236 423 q 419 434 380 420 l 422 434 m 682 370 q 543 402 608 370 q 433 494 479 434 q 339 469 389 469 q 203 526 258 472 q 146 662 148 581 q 203 799 148 745 q 339 854 258 853 q 410 841 376 854 q 525 958 453 916 q 682 1000 597 1000 q 850 951 774 998 q 966 823 925 905 q 1050 844 1005 844 q 1179 791 1127 842 q 1232 662 1230 739 q 1179 533 1230 585 q 1050 480 1127 481 q 947 513 993 480 q 833 408 902 445 q 682 370 764 370 m 435 506 l 438 503 q 545 412 481 444 q 682 380 609 380 q 830 417 762 380 q 941 522 898 454 l 944 526 l 948 524 q 1050 490 994 490 q 1172 540 1123 491 q 1222 662 1221 589 q 1172 784 1221 735 q 1050 836 1123 833 q 966 812 1005 834 l 962 811 l 959 815 q 846 943 920 897 q 682 990 773 990 q 528 949 598 990 q 415 834 457 907 l 414 830 l 410 831 q 339 846 376 846 q 210 792 262 844 q 156 662 157 741 q 210 533 157 585 q 339 479 262 481 q 431 505 388 479 l 435 506 m 963 817 q 897 753 921 793 q 872 662 872 712 q 892 581 872 618 q 944 519 911 544 q 993 685 991 593 q 963 817 991 757 m 526 662 q 494 768 525 722 q 411 836 463 814 q 372 685 373 768 q 388 587 372 633 q 433 500 404 540 q 500 568 475 525 q 526 662 525 610 m 967 81 l 925 100 l 922 134 l 959 161 q 966 172 966 165 q 963 185 967 179 q 952 192 959 191 q 940 190 945 193 l 906 165 l 871 182 l 867 222 q 848 239 864 239 q 833 220 833 235 l 837 176 l 808 155 l 768 174 q 754 174 761 176 q 745 165 747 171 q 745 152 742 159 q 753 142 747 145 l 799 122 l 802 92 l 761 62 q 753 52 754 58 q 757 39 753 45 q 768 32 761 33 q 780 35 774 31 l 819 64 q 823 66 822 65 l 849 56 q 850 50 849 53 l 854 1 q 873 -14 857 -14 q 888 4 888 -11 l 883 53 l 882 57 l 905 73 l 909 71 l 952 50 q 966 50 959 47 q 975 59 972 53 q 975 72 978 65 q 967 81 972 79 m 856 117 m 837 117 q 842 103 837 109 q 856 98 848 98 q 869 103 864 98 q 875 117 875 109 q 869 130 875 125 q 856 136 864 136 q 842 130 848 136 q 837 117 837 125 m 552 183 l 513 206 l 513 240 l 552 263 q 560 274 559 267 q 558 287 562 281 q 548 295 555 293 q 534 293 541 297 l 500 273 l 465 293 l 465 334 q 449 351 464 349 q 433 334 434 349 l 433 290 l 400 273 l 362 294 q 349 296 355 297 q 339 288 343 294 q 337 275 335 282 q 346 264 339 269 l 388 240 l 388 210 l 345 184 q 336 174 338 180 q 338 161 335 167 q 349 153 342 155 q 362 155 355 152 l 404 179 l 408 183 l 433 168 q 433 163 431 165 l 433 114 q 449 98 434 99 q 467 114 465 99 l 465 163 l 465 167 l 490 180 l 492 178 l 534 153 q 547 152 541 151 q 557 160 553 153 q 559 174 562 167 q 551 183 557 180 l 552 183 m 445 229 m 426 229 q 435 213 426 218 q 454 213 445 208 q 464 229 464 218 q 454 245 464 240 q 435 245 445 251 q 426 229 426 240 z "},"":{"ha":1389,"x_min":0,"x_max":1217,"o":"m 1172 803 l 217 803 q 191 814 202 803 q 180 840 180 825 q 191 866 180 856 q 217 878 202 876 l 1172 878 q 1198 866 1187 876 q 1208 840 1208 856 q 1198 814 1208 825 q 1172 803 1187 803 m 1172 796 l 217 796 q 186 810 198 798 q 174 840 174 822 q 186 871 174 859 q 217 884 198 883 l 1172 884 q 1202 871 1190 883 q 1215 840 1215 859 q 1203 810 1215 822 q 1172 796 1191 798 m 217 871 q 196 861 205 869 q 187 840 187 853 q 196 819 187 827 q 217 810 205 810 l 1172 810 q 1193 819 1184 810 q 1202 840 1202 827 q 1193 861 1202 853 q 1172 871 1184 869 l 217 871 m 1172 591 l 217 591 q 191 602 202 591 q 180 629 180 613 q 191 654 180 644 q 217 666 202 665 l 1172 666 q 1198 654 1187 665 q 1208 629 1208 644 q 1198 602 1208 613 q 1172 591 1187 591 m 1172 585 l 217 585 q 186 597 198 585 q 174 629 174 610 q 186 659 174 647 q 217 673 198 671 l 1172 673 q 1202 659 1190 671 q 1215 629 1215 647 q 1203 597 1215 610 q 1172 585 1191 585 m 217 659 q 196 650 205 658 q 187 629 187 642 q 196 607 187 616 q 217 598 205 598 l 1172 598 q 1193 607 1184 598 q 1202 629 1202 616 q 1193 650 1202 642 q 1172 659 1184 658 l 217 659 m 1172 376 l 217 376 q 191 387 202 377 q 180 413 180 397 q 191 439 180 429 q 217 450 202 450 l 1172 450 q 1198 439 1187 450 q 1208 413 1208 429 q 1198 387 1208 397 q 1172 376 1187 377 m 1172 370 l 217 370 q 186 382 198 370 q 174 413 174 395 q 186 444 174 431 q 217 457 198 457 l 1172 457 q 1202 444 1190 457 q 1215 413 1215 431 q 1203 382 1215 395 q 1172 370 1191 370 m 217 444 q 196 435 205 444 q 187 413 187 426 q 196 392 187 400 q 217 382 205 384 l 1172 382 q 1193 392 1184 384 q 1202 413 1202 400 q 1193 435 1202 426 q 1172 444 1184 444 l 217 444 m 1172 164 l 217 164 q 191 176 202 165 q 180 201 180 186 q 191 228 180 217 q 217 239 202 239 l 1172 239 q 1198 228 1187 239 q 1208 201 1208 217 q 1198 176 1208 186 q 1172 164 1187 165 m 1172 157 l 217 157 q 186 171 198 159 q 174 201 174 183 q 186 232 174 220 q 217 245 198 244 l 1172 245 q 1202 232 1190 244 q 1215 201 1215 220 q 1203 171 1215 183 q 1172 157 1191 159 m 217 232 q 196 223 205 232 q 187 201 187 214 q 196 180 187 189 q 217 171 205 172 l 1172 171 q 1193 180 1184 172 q 1202 201 1202 189 q 1193 223 1202 214 q 1172 232 1184 232 l 217 232 z "},"":{"ha":2469,"x_min":0,"x_max":1843,"o":"m 1622 23 l 1558 60 l 1558 115 l 1624 152 q 1636 170 1633 159 q 1633 191 1638 180 q 1617 203 1628 201 q 1595 201 1606 206 l 1534 168 l 1474 199 l 1474 266 q 1466 286 1474 278 q 1447 294 1458 294 q 1426 286 1435 294 q 1417 266 1417 278 l 1417 197 l 1373 167 l 1313 202 q 1292 205 1302 208 q 1276 192 1282 202 q 1274 171 1271 182 q 1287 155 1276 160 l 1358 114 l 1358 65 l 1287 24 q 1274 8 1276 19 q 1277 -13 1271 -3 q 1293 -26 1283 -23 q 1314 -23 1303 -28 l 1382 16 q 1389 22 1386 19 l 1424 -1 q 1421 -5 1423 -3 q 1417 -11 1419 -8 l 1417 -90 q 1427 -109 1419 -100 q 1447 -117 1435 -117 q 1466 -109 1458 -117 q 1474 -90 1474 -100 l 1474 -11 l 1477 -4 l 1519 19 l 1526 14 l 1594 -26 q 1615 -28 1605 -31 q 1632 -16 1626 -26 q 1635 5 1638 -5 q 1622 23 1632 16 m 1450 98 m 1419 98 q 1428 75 1419 84 q 1450 66 1436 66 q 1472 75 1463 66 q 1481 98 1481 84 q 1472 120 1481 111 q 1450 129 1463 129 q 1428 120 1436 129 q 1419 98 1419 111 m 1591 1012 q 1520 1002 1554 1012 q 1393 1112 1470 1072 q 1224 1153 1316 1153 q 1057 1114 1133 1153 q 930 1006 981 1074 q 879 1012 906 1012 q 705 939 774 1009 q 632 765 635 869 q 705 589 635 659 q 879 518 774 519 q 962 532 922 518 q 1079 451 1012 480 q 1225 422 1146 422 q 1373 453 1303 422 q 1492 538 1442 484 q 1591 518 1538 518 q 1765 589 1695 519 q 1838 765 1835 659 q 1765 939 1835 869 q 1591 1012 1695 1009 m 1223 416 q 1080 445 1147 416 q 960 526 1013 473 q 879 513 920 513 q 701 587 772 515 q 627 765 629 658 q 701 943 629 872 q 879 1017 772 1015 q 928 1012 903 1017 q 1059 1120 982 1082 q 1224 1158 1135 1158 q 1391 1118 1313 1158 q 1522 1008 1469 1078 q 1591 1017 1556 1017 q 1768 943 1697 1015 q 1843 765 1839 872 q 1769 587 1839 658 q 1591 513 1698 515 q 1493 533 1539 513 q 1370 446 1439 476 q 1223 416 1301 416 m 962 537 l 964 534 q 1082 454 1016 481 q 1224 426 1149 426 q 1367 456 1299 426 q 1488 541 1435 486 l 1491 544 l 1493 543 q 1591 522 1541 522 q 1763 593 1694 525 q 1834 765 1831 662 q 1763 937 1831 868 q 1591 1008 1694 1005 q 1522 997 1556 1008 l 1519 997 l 1516 1000 q 1388 1109 1465 1070 q 1224 1149 1312 1149 q 1061 1112 1137 1149 q 935 1004 986 1074 l 932 1001 l 929 1002 q 879 1008 905 1008 q 708 937 777 1005 q 637 765 639 868 q 707 593 639 662 q 879 522 776 525 q 959 536 920 522 l 962 537 m 1062 171 l 1029 201 l 1038 235 l 1081 248 q 1091 257 1088 251 q 1092 270 1095 263 q 1083 280 1089 277 q 1070 281 1077 283 l 1032 269 l 1002 296 l 1012 336 q 998 355 1013 351 q 979 343 983 358 l 970 301 l 935 290 l 902 320 q 890 325 897 326 q 878 319 883 324 q 873 307 873 313 q 879 296 873 300 l 916 262 l 909 232 l 860 217 q 850 208 853 214 q 850 195 848 202 q 858 186 852 189 q 871 184 864 183 l 917 199 l 922 201 l 943 183 q 941 176 943 180 l 930 129 q 944 111 929 114 q 963 122 959 107 l 974 170 l 974 174 l 1001 182 l 1004 178 l 1039 145 q 1051 141 1044 141 q 1063 146 1058 141 q 1068 159 1069 152 q 1062 171 1067 165 m 968 239 m 949 239 q 955 225 949 231 q 968 220 960 220 q 982 225 977 220 q 987 239 987 231 q 982 252 987 247 q 968 258 977 258 q 955 252 960 258 q 949 239 949 247 z "},"":{"ha":1389,"x_min":0,"x_max":1303,"o":"m 684 750 m 373 750 q 463 531 376 618 q 684 439 551 444 q 903 531 815 444 q 993 750 990 618 q 903 970 990 883 q 684 1061 815 1058 q 463 970 551 1058 q 373 750 376 883 m 1050 728 m 873 728 q 925 602 875 652 q 1050 551 975 552 q 1176 602 1126 552 q 1227 728 1226 652 q 1176 853 1226 803 q 1050 906 1126 903 q 925 853 975 903 q 873 728 875 803 m 339 728 m 151 728 q 176 634 152 677 q 245 566 201 591 q 338 540 289 540 q 433 566 388 540 q 502 634 477 591 q 526 728 526 677 q 472 861 525 808 q 339 916 419 914 q 206 861 259 914 q 151 728 153 808 m 1050 975 q 981 964 1013 975 q 852 1076 929 1035 q 684 1116 776 1116 q 516 1077 591 1116 q 389 970 441 1038 q 339 975 365 975 q 164 903 233 972 q 92 728 95 833 q 164 553 95 623 q 339 480 233 483 q 420 495 382 481 q 538 414 471 444 q 684 385 605 384 q 832 416 764 385 q 952 502 901 446 q 1051 480 997 481 q 1225 553 1156 483 q 1298 728 1295 623 q 1225 903 1295 833 q 1050 975 1156 972 m 1050 551 q 945 585 990 552 q 835 480 903 519 q 684 439 766 441 q 542 474 606 441 q 434 566 477 507 q 339 540 392 540 q 206 595 259 541 q 151 728 153 648 q 206 861 153 808 q 339 916 259 914 q 411 901 377 916 q 523 1017 452 974 q 682 1061 594 1059 q 851 1011 777 1059 q 963 883 925 963 q 1050 905 1002 905 q 1176 853 1126 903 q 1227 728 1226 803 q 1176 602 1226 652 q 1050 551 1126 552 m 682 380 q 540 408 608 380 q 419 490 472 435 q 339 476 380 476 q 161 550 232 479 q 87 728 90 621 q 161 906 90 836 q 339 981 232 977 q 388 975 363 979 q 518 1084 442 1046 q 683 1122 594 1122 q 850 1082 772 1122 q 982 971 928 1042 q 1050 981 1016 981 q 1228 907 1157 978 q 1302 728 1299 836 q 1228 550 1299 621 q 1050 476 1157 479 q 952 496 1000 476 q 830 410 899 439 q 682 380 761 380 m 419 499 l 423 498 q 543 417 476 445 q 684 389 609 389 q 827 418 760 389 q 948 505 895 448 l 954 506 q 1050 486 1000 486 q 1221 557 1153 488 q 1293 728 1290 625 q 1221 900 1290 831 q 1050 971 1153 968 q 981 960 1016 971 l 977 962 q 847 1073 924 1034 q 683 1112 770 1112 q 521 1074 595 1112 q 393 967 446 1036 l 388 966 q 339 971 363 971 q 168 900 236 968 q 96 728 99 831 q 168 557 99 625 q 339 486 236 488 q 419 499 380 486 m 682 435 q 543 468 608 435 q 433 560 479 500 q 339 536 388 536 q 203 591 258 537 q 146 728 148 646 q 202 864 148 810 q 339 921 256 918 q 410 907 376 921 q 525 1023 453 982 q 684 1066 597 1065 q 850 1018 774 1065 q 966 890 925 971 q 1050 910 1005 910 q 1179 857 1127 909 q 1233 728 1230 806 q 1179 600 1230 651 q 1050 547 1127 548 q 947 579 994 547 q 833 473 902 511 q 682 435 764 435 m 431 570 l 437 568 q 545 477 481 509 q 682 445 609 445 q 830 482 762 445 q 941 587 898 519 l 948 589 q 1050 555 994 556 q 1172 606 1123 557 q 1223 728 1221 655 q 1172 850 1221 802 q 1050 901 1123 899 q 966 879 1005 901 l 959 880 q 846 1008 920 962 q 682 1057 773 1055 q 528 1014 598 1055 q 415 899 457 972 l 410 897 q 339 911 376 911 q 209 857 260 909 q 156 728 157 806 q 209 598 157 650 q 339 544 260 547 q 431 570 388 545 m 963 883 q 898 819 922 859 q 873 728 873 779 q 892 647 873 684 q 945 585 911 610 q 993 750 991 658 q 963 883 993 822 m 526 728 q 494 833 526 787 q 411 902 463 879 q 373 750 373 834 q 389 652 373 699 q 434 566 404 605 q 501 633 476 591 q 526 728 526 675 m 473 283 q 451 231 472 252 q 398 210 430 210 q 345 231 366 210 q 323 283 324 252 q 348 352 326 311 q 388 419 370 393 q 398 425 392 425 q 408 419 404 425 q 448 352 425 393 q 473 283 471 311 m 397 205 q 342 227 365 205 q 319 283 319 250 q 342 351 320 311 q 384 422 363 392 q 398 429 389 429 q 411 422 407 429 q 454 351 431 392 q 477 283 476 311 q 454 227 476 250 q 397 205 431 205 m 397 420 q 392 416 395 419 q 353 351 376 392 q 328 283 330 309 q 348 234 328 254 q 397 214 368 214 q 448 234 427 214 q 468 283 468 254 q 444 351 467 309 q 404 416 420 392 q 397 420 401 419 m 1086 167 q 1065 114 1086 136 q 1013 92 1044 92 q 959 114 981 92 q 937 167 937 136 q 962 235 940 194 q 1002 302 985 277 q 1012 308 1006 308 q 1021 302 1017 308 q 1062 235 1039 277 q 1086 167 1085 194 m 1012 87 q 956 111 978 88 q 932 167 933 133 q 956 233 935 193 q 998 305 978 274 q 1012 312 1004 312 q 1025 305 1020 312 q 1067 233 1046 274 q 1092 167 1089 193 q 1068 111 1090 133 q 1012 87 1046 88 m 1012 302 q 1006 300 1008 302 q 966 234 989 275 q 941 167 944 193 q 962 117 943 137 q 1012 98 982 98 q 1061 117 1042 98 q 1082 167 1081 137 q 1065 218 1082 183 q 1017 300 1048 252 q 1012 302 1016 302 m 780 16 l 739 34 l 736 69 l 773 95 q 780 107 779 100 q 777 119 781 114 q 766 126 773 125 q 753 123 760 127 l 720 100 l 684 115 l 680 157 q 662 172 677 172 q 647 153 647 170 l 651 110 l 621 90 l 581 107 q 568 107 574 110 q 559 98 562 104 q 558 85 556 92 q 567 76 560 79 l 612 56 l 614 26 l 574 -4 q 567 -15 568 -8 q 570 -28 566 -22 q 581 -35 574 -34 q 594 -31 587 -35 l 633 -3 q 637 0 636 -1 l 663 -11 q 663 -16 663 -14 l 669 -65 q 686 -80 671 -80 q 701 -61 703 -77 l 697 -14 l 696 -9 l 719 7 l 722 4 l 766 -15 q 779 -16 773 -18 q 789 -7 785 -14 q 789 6 792 0 q 780 16 787 12 m 670 52 m 651 52 q 661 35 651 41 q 680 35 670 30 q 689 52 689 41 q 680 68 689 62 q 661 68 670 73 q 651 52 651 62 z "},"":{"ha":1389,"x_min":0,"x_max":1302,"o":"m 393 795 l 175 795 q 172 796 172 795 l 172 845 q 175 846 172 846 l 393 846 q 395 845 395 846 l 395 796 q 393 795 395 795 m 369 789 l 199 789 q 177 798 186 789 q 168 820 168 807 q 177 842 168 833 q 199 852 186 850 l 369 852 q 391 842 382 850 q 400 820 400 833 q 391 798 400 807 q 369 789 382 789 m 199 842 q 184 835 190 841 q 178 820 178 829 q 184 805 178 811 q 199 799 190 799 l 369 799 q 385 805 378 799 q 391 820 391 811 q 385 835 391 829 q 369 842 378 841 l 199 842 m 860 779 m 637 779 q 668 669 639 719 q 749 588 697 618 q 859 557 802 557 q 969 588 917 557 q 1050 669 1021 618 q 1081 779 1080 719 q 1016 936 1078 873 q 859 1001 954 998 q 703 936 765 998 q 637 779 640 873 m 1122 764 m 994 764 q 1012 700 996 728 q 1058 654 1028 671 q 1121 636 1088 636 q 1184 654 1154 636 q 1230 700 1214 671 q 1246 763 1246 728 q 1230 826 1246 798 q 1184 872 1214 854 q 1121 890 1154 890 q 1058 872 1088 890 q 1012 826 1028 854 q 994 762 996 798 l 994 764 m 614 764 m 480 764 q 498 696 480 727 q 547 648 515 666 q 614 629 579 629 q 681 648 650 629 q 730 696 712 666 q 747 763 747 727 q 730 829 747 799 q 681 878 712 860 q 614 897 650 897 q 547 878 579 897 q 498 829 515 860 q 480 762 480 799 l 480 764 m 1122 939 q 1072 932 1095 939 q 980 1011 1035 982 q 860 1040 925 1040 q 741 1012 795 1040 q 651 936 686 983 q 614 940 633 939 q 490 888 540 937 q 438 764 439 838 q 490 638 439 688 q 614 587 540 589 q 673 597 644 587 q 756 539 708 560 q 861 518 804 518 q 966 541 917 518 q 1051 602 1015 563 q 1122 587 1084 587 q 1246 638 1196 589 q 1297 764 1295 688 q 1246 888 1295 838 q 1122 939 1196 937 m 1122 636 q 1046 662 1078 637 q 968 587 1016 614 q 860 557 920 559 q 758 583 804 559 q 682 648 712 606 q 614 629 651 629 q 519 669 557 631 q 481 764 481 707 q 519 858 481 821 q 614 897 557 895 q 666 887 642 897 q 745 969 694 939 q 860 1001 796 1000 q 979 965 926 1000 q 1059 873 1032 930 q 1122 890 1086 888 q 1211 852 1175 888 q 1246 763 1246 817 q 1211 673 1246 709 q 1122 636 1175 637 m 860 513 q 758 533 806 513 q 671 591 709 553 q 614 582 643 582 q 486 635 537 585 q 433 764 435 686 q 486 890 435 840 q 614 944 537 941 q 648 941 631 944 q 742 1017 688 990 q 859 1044 796 1044 q 979 1017 922 1044 q 1073 937 1035 989 q 1122 944 1096 944 q 1249 891 1198 943 q 1302 764 1299 840 q 1249 635 1299 686 q 1122 582 1198 585 q 1051 595 1085 582 q 964 534 1013 556 q 860 513 914 513 m 671 601 l 675 601 q 760 543 712 563 q 861 524 807 524 q 962 545 914 524 q 1047 605 1009 566 l 1053 606 q 1122 591 1085 591 q 1242 642 1194 594 q 1293 764 1291 690 q 1242 884 1291 836 q 1122 935 1194 933 q 1073 928 1096 935 l 1067 929 q 975 1007 1029 979 q 859 1035 921 1035 q 745 1008 798 1035 q 654 933 692 982 l 650 930 q 614 935 632 935 q 493 884 541 933 q 442 764 445 836 q 493 642 445 690 q 614 591 541 594 q 670 601 643 591 l 671 601 m 860 553 q 760 576 806 553 q 681 642 713 600 q 614 624 650 624 q 516 665 555 625 q 476 762 477 704 q 516 861 477 822 q 614 902 555 901 q 665 892 640 902 q 746 975 694 945 q 860 1005 798 1005 q 978 970 924 1004 q 1062 880 1032 937 q 1122 894 1089 894 q 1214 856 1177 892 q 1251 763 1251 819 q 1214 670 1251 707 q 1122 632 1177 633 q 1047 654 1081 632 q 966 580 1016 606 q 860 553 917 553 m 680 651 l 686 651 q 762 585 718 608 q 860 563 807 563 q 964 589 916 563 q 1042 665 1012 616 l 1048 666 q 1122 642 1081 642 q 1207 677 1173 643 q 1241 764 1241 712 q 1207 849 1241 815 q 1122 884 1173 883 q 1062 869 1089 884 l 1055 872 q 975 962 1027 929 q 860 996 922 994 q 750 966 800 996 q 670 884 700 936 l 665 882 q 614 892 640 892 q 523 854 559 891 q 487 763 487 818 q 523 671 487 708 q 614 633 559 635 q 680 651 648 633 m 1059 873 q 1013 827 1029 856 q 994 764 996 799 q 1009 705 996 731 q 1046 662 1023 680 q 1081 779 1080 713 q 1059 873 1080 830 m 749 764 q 725 838 747 806 q 666 887 703 871 q 637 779 639 838 q 682 647 639 704 q 730 696 712 666 q 749 764 747 726 m 311 635 l 94 635 q 92 637 92 635 l 92 686 q 94 688 92 688 l 311 688 q 312 686 312 688 l 312 637 q 311 635 312 635 m 286 631 l 118 631 q 96 640 104 631 q 87 661 87 648 q 96 683 87 674 q 118 692 104 692 l 286 692 q 307 683 298 692 q 316 661 316 674 q 307 640 316 648 q 286 631 298 631 m 118 682 q 102 676 109 682 q 96 661 96 670 q 102 646 96 652 q 118 640 109 640 l 286 640 q 300 646 294 640 q 307 661 307 652 q 300 676 307 670 q 286 682 294 682 l 118 682 m 460 492 l 94 492 q 92 494 92 492 l 92 543 q 94 544 92 544 l 460 544 q 463 543 461 544 l 463 494 q 460 492 461 492 m 435 487 l 118 487 q 96 496 104 487 q 87 517 87 505 q 96 539 87 530 q 118 549 104 548 l 435 549 q 458 539 449 548 q 467 517 467 530 q 458 496 467 505 q 435 487 449 487 m 118 540 q 102 532 109 538 q 96 517 96 526 q 102 503 96 509 q 118 496 109 496 l 435 496 q 451 503 445 496 q 457 517 457 509 q 451 532 457 526 q 435 540 445 538 l 118 540 m 815 228 l 773 247 l 769 281 l 807 309 q 814 320 814 313 q 811 333 815 327 q 800 340 807 339 q 787 336 793 340 l 753 313 l 716 330 l 712 370 q 694 387 709 387 q 682 380 686 385 q 678 368 678 374 l 684 324 l 654 302 l 612 320 q 599 321 605 323 q 589 312 593 319 q 589 298 586 305 q 598 289 591 292 l 644 269 l 647 237 l 605 208 q 598 197 600 203 q 601 184 597 190 q 612 176 605 178 q 625 179 620 175 l 666 209 l 669 212 l 696 201 q 696 194 696 198 l 701 145 q 720 130 704 130 q 731 136 727 130 q 735 149 735 141 l 730 198 l 728 201 l 751 218 l 755 216 l 800 195 q 814 195 807 193 q 823 205 821 198 q 824 218 826 212 q 815 228 822 224 m 703 263 m 682 263 q 693 247 684 252 q 712 247 703 241 q 722 262 722 252 q 716 277 722 271 q 703 283 711 283 q 689 277 694 283 q 682 263 684 271 m 1157 94 l 1115 113 l 1112 148 l 1150 175 q 1157 186 1156 179 q 1154 199 1158 194 q 1142 206 1149 205 q 1130 203 1135 208 l 1096 179 l 1059 195 l 1055 237 q 1036 254 1053 254 q 1025 247 1029 252 q 1021 235 1021 241 l 1025 190 l 996 168 l 955 187 q 941 187 948 190 q 932 178 935 184 q 932 165 929 172 q 940 156 935 159 l 986 134 l 990 104 l 948 75 q 941 63 943 71 q 944 50 940 56 q 955 43 948 45 q 968 46 962 42 l 1009 75 l 1012 79 l 1039 68 q 1039 61 1039 65 l 1044 12 q 1063 -3 1047 -4 q 1074 3 1070 -3 q 1078 16 1078 8 l 1073 65 l 1072 68 l 1095 85 l 1099 83 l 1143 62 q 1157 62 1150 60 q 1166 71 1164 64 q 1166 84 1169 77 q 1157 94 1164 91 m 1046 130 m 1025 130 q 1036 114 1025 119 q 1055 114 1046 109 q 1065 130 1065 119 q 1055 146 1065 141 q 1035 146 1044 152 q 1025 130 1025 141 z "},"":{"ha":1389,"x_min":0,"x_max":1303,"o":"m 393 788 l 175 788 q 172 791 172 788 l 172 840 q 175 841 172 841 l 393 841 q 395 840 395 841 l 395 791 q 393 788 395 788 m 369 784 l 198 784 q 177 793 186 784 q 168 814 168 802 q 177 836 168 827 q 198 845 186 845 l 369 845 q 391 836 382 845 q 399 814 399 827 q 391 793 399 802 q 369 784 382 784 m 198 836 q 184 829 190 836 q 178 814 178 823 q 184 800 178 806 q 198 793 190 793 l 369 793 q 385 800 378 793 q 391 814 391 806 q 385 829 391 823 q 369 836 378 836 l 198 836 m 860 773 m 639 773 q 703 617 640 680 q 860 552 765 555 q 1016 617 954 555 q 1081 773 1078 680 q 1016 930 1078 868 q 860 994 954 993 q 703 930 765 993 q 639 773 640 868 m 1122 757 m 996 757 q 1012 694 996 723 q 1058 648 1028 665 q 1121 631 1088 631 q 1184 648 1154 631 q 1231 694 1214 665 q 1248 758 1248 723 q 1231 821 1248 792 q 1184 867 1214 849 q 1121 884 1154 884 q 1058 867 1088 884 q 1012 821 1028 849 q 996 757 996 792 m 614 757 m 480 757 q 498 690 480 720 q 547 641 515 659 q 614 623 579 623 q 681 641 650 623 q 730 690 712 659 q 747 757 747 720 q 730 824 747 793 q 681 873 712 854 q 614 891 650 891 q 547 873 579 891 q 498 824 515 854 q 480 757 480 793 m 1122 933 q 1072 926 1095 933 q 980 1005 1035 977 q 860 1034 925 1034 q 741 1006 795 1034 q 651 930 686 978 q 614 933 633 933 q 490 882 540 932 q 438 757 439 833 q 490 633 439 682 q 614 581 540 583 q 673 591 646 581 q 756 534 708 555 q 861 513 804 513 q 966 534 917 513 q 1051 595 1015 556 q 1122 581 1084 582 q 1246 633 1196 583 q 1298 757 1295 682 q 1246 882 1295 833 q 1122 933 1196 932 m 1122 631 q 1047 655 1078 632 q 968 580 1016 608 q 860 552 920 552 q 758 576 804 552 q 682 642 712 601 q 614 623 651 624 q 519 663 557 625 q 481 757 481 700 q 519 852 481 814 q 614 891 557 890 q 666 880 642 891 q 746 963 696 932 q 860 994 796 994 q 979 960 926 994 q 1059 867 1032 925 q 1122 883 1088 883 q 1211 846 1175 882 q 1246 758 1246 811 q 1211 668 1246 704 q 1122 631 1175 632 m 860 507 q 758 528 806 507 q 671 586 709 548 q 614 576 643 576 q 486 629 537 578 q 433 757 435 681 q 486 885 435 834 q 614 939 537 936 q 648 935 631 939 q 742 1012 688 985 q 860 1039 796 1039 q 979 1011 924 1039 q 1073 932 1035 983 q 1122 939 1097 939 q 1249 885 1198 936 q 1302 757 1301 834 q 1249 629 1301 681 q 1122 576 1198 578 q 1053 590 1085 576 q 964 528 1013 549 q 860 507 914 507 m 671 595 l 675 594 q 760 536 712 556 q 861 517 807 517 q 962 538 914 517 q 1047 600 1010 559 l 1053 600 q 1122 586 1085 586 q 1242 636 1194 587 q 1293 757 1291 685 q 1242 878 1291 830 q 1122 929 1194 926 q 1073 921 1096 929 l 1067 924 q 977 1002 1031 974 q 860 1029 922 1029 q 745 1003 798 1029 q 654 926 692 977 l 650 925 q 614 929 632 929 q 493 878 541 926 q 444 757 445 830 q 493 636 445 685 q 614 586 541 587 q 671 595 643 586 m 860 548 q 760 570 806 548 q 681 636 713 593 q 614 618 650 618 q 516 659 555 620 q 476 757 477 699 q 516 855 477 817 q 614 895 555 894 q 665 887 640 895 q 746 969 694 940 q 860 1000 798 998 q 979 965 925 998 q 1062 873 1032 932 q 1122 888 1089 888 q 1214 850 1177 887 q 1251 757 1251 812 q 1214 664 1251 701 q 1122 625 1177 627 q 1048 648 1081 627 q 966 574 1016 601 q 860 547 917 548 l 860 548 m 680 646 l 686 644 q 762 580 718 602 q 860 557 807 557 q 964 584 916 557 q 1043 658 1012 610 l 1050 659 q 1122 636 1081 636 q 1207 671 1173 637 q 1241 757 1241 705 q 1207 843 1241 808 q 1122 879 1173 878 q 1062 864 1089 879 l 1055 865 q 975 956 1027 922 q 860 990 922 989 q 749 960 799 990 q 670 879 700 930 l 665 876 q 614 887 640 887 q 522 849 559 886 q 486 758 486 812 q 522 666 486 703 q 614 628 559 629 q 680 646 648 628 m 1059 868 q 1013 822 1031 850 q 996 757 996 793 q 1009 699 996 726 q 1047 655 1023 673 q 1081 773 1080 708 q 1059 868 1080 825 m 749 757 q 725 833 747 800 q 666 880 703 865 q 639 773 639 833 q 682 642 640 699 q 730 690 712 659 q 749 757 747 720 m 309 629 l 94 629 q 91 631 92 629 l 91 680 q 94 682 91 682 l 309 682 q 312 680 312 682 l 312 631 q 309 629 312 629 m 286 625 l 118 625 q 96 634 104 625 q 87 656 87 643 q 96 677 87 669 q 118 686 104 686 l 286 686 q 307 677 298 686 q 316 656 316 669 q 307 634 316 643 q 286 625 298 625 m 118 677 q 102 671 109 677 q 96 656 96 665 q 102 641 96 647 q 118 635 109 635 l 286 635 q 300 641 294 635 q 307 656 307 647 q 300 671 307 665 q 286 677 294 677 l 118 677 m 460 486 l 94 486 q 91 488 92 486 l 91 536 q 94 538 91 538 l 460 538 q 461 536 461 538 l 461 488 q 460 486 461 486 m 435 481 l 118 481 q 96 490 104 481 q 87 512 87 499 q 96 534 87 525 q 118 543 104 543 l 435 543 q 458 534 449 543 q 467 512 467 525 q 458 490 467 499 q 435 481 449 481 m 118 533 q 102 527 109 533 q 96 512 96 521 q 102 497 96 503 q 118 491 109 491 l 435 491 q 451 497 445 491 q 457 512 457 503 q 451 527 457 521 q 435 533 445 533 l 118 533 m 781 236 q 758 182 780 203 q 705 160 736 160 q 651 182 673 160 q 628 236 629 203 q 654 305 631 263 q 694 373 677 347 q 705 378 699 378 q 715 373 711 378 q 755 305 732 347 q 781 236 779 263 m 705 155 q 647 178 670 156 q 624 236 624 201 q 648 303 625 262 q 690 376 670 345 q 705 382 696 382 q 719 376 713 382 q 762 303 739 345 q 785 236 784 262 q 762 178 785 201 q 705 155 739 156 m 705 374 q 699 370 701 374 q 650 288 667 323 q 633 236 633 252 q 654 185 633 205 q 705 165 674 165 q 755 185 735 165 q 776 236 776 205 q 759 288 776 252 q 711 370 742 323 q 705 374 708 374 m 1081 83 q 1058 29 1080 50 q 1004 8 1036 8 q 951 29 972 8 q 928 83 929 50 q 954 152 930 110 q 994 221 977 194 q 1004 227 998 227 q 1015 221 1010 227 q 1055 152 1032 194 q 1081 83 1078 110 m 1005 3 q 947 26 970 3 q 924 83 924 49 q 947 151 925 110 q 990 224 970 193 q 1004 231 996 231 q 1019 224 1013 231 q 1061 151 1039 193 q 1085 83 1084 110 q 1062 26 1085 49 q 1004 3 1039 3 l 1005 3 m 1005 221 q 998 218 1001 221 q 958 151 982 193 q 933 83 935 110 q 954 33 933 53 q 1004 12 974 12 q 1055 33 1035 12 q 1076 83 1076 53 q 1059 136 1076 100 q 1010 218 1042 171 q 1005 221 1008 221 z "},"":{"ha":1389,"x_min":0,"x_max":1302,"o":"m 682 745 m 373 745 q 414 589 373 661 q 528 476 454 518 q 683 434 601 434 q 838 476 765 434 q 951 589 910 518 q 993 745 993 661 q 903 964 990 876 q 682 1055 815 1051 q 463 964 551 1051 q 373 745 376 876 m 1050 722 m 873 722 q 925 597 875 647 q 1050 545 975 547 q 1176 597 1126 547 q 1227 722 1226 647 q 1176 848 1226 798 q 1050 899 1126 898 q 925 848 975 898 q 873 722 875 798 m 339 722 m 151 722 q 206 589 153 643 q 339 534 259 536 q 472 589 419 536 q 528 722 525 643 q 472 855 525 802 q 339 910 419 909 q 206 855 259 909 q 151 722 153 802 m 1050 970 q 979 959 1013 968 q 852 1070 929 1029 q 684 1111 776 1111 q 516 1072 591 1111 q 389 964 441 1032 q 339 970 365 970 q 163 897 233 967 q 91 722 94 827 q 163 547 94 617 q 339 475 233 477 q 420 488 382 475 q 538 408 471 437 q 684 378 605 378 q 831 410 762 378 q 951 495 901 441 q 1050 475 997 475 q 1225 547 1156 477 q 1298 722 1295 617 q 1225 897 1295 827 q 1050 970 1156 967 m 1050 545 q 945 579 990 545 q 835 474 903 513 q 684 434 766 435 q 542 469 606 435 q 434 560 477 502 q 339 534 392 534 q 206 589 259 536 q 151 722 153 642 q 206 854 153 802 q 339 910 259 907 q 412 895 378 910 q 524 1011 453 968 q 684 1055 594 1054 q 851 1005 777 1054 q 964 876 925 956 q 1050 899 1002 899 q 1176 848 1126 898 q 1227 722 1226 798 q 1176 597 1226 647 q 1050 545 1126 547 m 682 373 q 540 401 608 373 q 419 484 472 430 q 339 471 380 471 q 161 544 232 473 q 87 722 90 614 q 161 900 90 829 q 339 974 232 971 q 388 970 363 974 q 518 1077 442 1039 q 683 1115 594 1115 q 850 1076 772 1115 q 982 964 928 1036 q 1050 974 1016 974 q 1228 900 1157 971 q 1302 722 1299 829 q 1228 545 1299 616 q 1050 471 1157 473 q 952 490 1000 471 q 829 404 899 434 q 682 373 760 374 m 419 494 l 423 492 q 543 411 476 439 q 684 382 609 382 q 827 412 760 382 q 948 499 895 442 l 952 500 q 1050 480 1000 480 q 1221 551 1153 483 q 1293 722 1290 620 q 1221 893 1290 825 q 1050 964 1153 962 q 981 955 1015 964 l 975 956 q 847 1066 924 1027 q 683 1105 770 1105 q 521 1068 595 1105 q 393 962 446 1031 l 388 959 q 339 964 363 964 q 168 893 236 962 q 96 722 99 825 q 168 550 99 618 q 339 479 236 481 q 419 494 380 479 m 682 430 q 543 462 608 430 q 433 553 479 494 q 339 529 388 529 q 203 586 258 532 q 146 722 148 640 q 203 859 148 804 q 339 914 258 913 q 410 901 376 914 q 525 1017 453 975 q 682 1059 597 1059 q 850 1011 774 1058 q 966 883 925 964 q 1050 903 1005 903 q 1179 850 1127 902 q 1232 722 1230 799 q 1179 593 1230 644 q 1050 540 1127 541 q 947 572 993 540 q 833 467 902 505 q 682 430 764 430 m 431 564 l 438 563 q 545 471 481 503 q 682 439 609 439 q 830 477 762 439 q 941 582 898 514 l 948 583 q 1050 549 994 549 q 1172 600 1123 551 q 1223 722 1221 648 q 1172 844 1221 795 q 1050 895 1123 892 q 966 872 1005 894 l 959 875 q 846 1003 920 956 q 682 1050 773 1050 q 528 1008 598 1050 q 415 892 457 967 l 410 891 q 339 905 376 905 q 209 852 260 903 q 156 722 157 800 q 209 593 157 644 q 339 538 260 541 q 431 564 388 538 m 963 876 q 898 812 922 853 q 873 722 873 772 q 892 641 873 678 q 945 579 911 604 q 993 745 991 652 q 963 876 993 817 m 526 722 q 494 827 526 781 q 411 895 463 873 q 373 745 373 827 q 389 646 373 693 q 434 560 404 600 q 501 627 476 585 q 526 722 526 670 m 393 294 q 371 241 392 262 q 318 220 350 220 q 265 241 286 220 q 243 294 244 262 q 268 361 245 320 q 308 429 290 403 q 318 434 312 434 q 328 429 324 434 q 368 361 345 403 q 393 294 391 320 m 317 214 q 261 238 283 216 q 239 294 239 260 q 262 361 240 320 q 304 431 283 401 q 318 438 309 438 q 331 431 327 438 q 374 361 351 401 q 397 294 396 320 q 374 238 396 260 q 317 214 351 216 m 317 430 q 312 426 315 430 q 273 361 296 401 q 248 294 250 320 q 268 244 248 264 q 317 224 288 224 q 368 244 347 224 q 388 294 388 264 q 363 361 385 320 q 324 426 340 401 q 317 430 321 430 m 768 191 q 745 138 766 159 q 692 117 724 117 q 640 138 661 117 q 617 191 618 159 q 642 258 620 217 q 682 327 665 300 q 692 331 686 331 q 703 327 699 331 q 742 258 719 300 q 768 191 765 217 m 692 111 q 635 135 658 113 q 613 191 613 157 q 636 258 614 217 q 678 328 658 298 q 692 335 684 335 q 705 328 701 335 q 748 258 726 298 q 772 191 770 217 q 748 135 770 157 q 692 111 726 113 m 692 327 q 686 324 689 327 q 647 258 670 298 q 623 191 624 217 q 642 142 623 161 q 692 122 662 122 q 742 142 722 122 q 762 191 762 161 q 737 258 760 217 q 699 324 715 298 q 692 327 696 327 m 1142 305 q 1120 252 1141 273 q 1067 231 1099 231 q 1014 252 1035 231 q 991 305 993 273 q 1017 372 994 331 q 1057 439 1039 414 q 1067 445 1061 445 q 1076 439 1073 445 q 1116 372 1093 414 q 1141 305 1139 331 l 1142 305 m 1066 225 q 1010 249 1032 227 q 987 305 987 271 q 1010 372 989 331 q 1053 442 1032 412 q 1067 449 1058 449 q 1080 442 1076 449 q 1122 372 1100 412 q 1146 305 1145 331 q 1122 249 1145 271 q 1066 225 1100 227 m 1066 441 q 1061 437 1063 441 q 1014 356 1031 391 q 997 305 997 321 q 1017 255 997 275 q 1066 235 1036 235 q 1116 255 1096 235 q 1137 305 1137 275 q 1120 356 1137 321 q 1073 437 1103 391 q 1066 441 1070 441 m 524 5 q 502 -48 524 -27 q 448 -69 480 -69 q 395 -48 416 -69 q 374 5 374 -27 q 399 73 376 31 q 439 141 422 115 q 449 146 444 145 q 458 141 454 146 q 498 73 476 115 q 524 5 521 31 m 449 -75 q 393 -51 415 -73 q 369 5 370 -28 q 393 72 372 31 q 435 144 415 113 q 449 151 441 151 q 463 144 457 151 q 505 72 483 113 q 529 5 526 31 q 505 -51 528 -28 q 449 -75 483 -73 m 449 141 q 444 138 445 141 q 395 56 412 91 q 378 5 378 22 q 399 -44 380 -24 q 449 -64 419 -64 q 498 -44 479 -64 q 519 5 518 -24 q 503 56 519 22 q 454 138 486 91 q 449 141 453 141 m 987 5 q 965 -48 986 -27 q 912 -69 944 -69 q 859 -48 880 -69 q 837 5 838 -27 q 862 73 840 31 q 902 141 884 115 q 912 146 906 145 q 922 141 918 146 q 962 73 939 115 q 987 5 985 31 m 911 -75 q 856 -51 879 -73 q 833 5 833 -28 q 856 72 834 31 q 898 144 878 113 q 912 151 903 151 q 925 144 921 151 q 968 72 945 113 q 991 5 990 31 q 968 -51 990 -28 q 911 -75 945 -73 m 911 141 q 906 138 909 141 q 859 56 876 91 q 842 5 842 22 q 862 -44 842 -24 q 911 -64 882 -64 q 962 -44 941 -64 q 982 5 982 -24 q 965 56 982 22 q 918 138 948 91 q 911 141 916 141 m 1050 970 q 979 959 1013 968 q 852 1070 929 1029 q 684 1111 776 1111 q 516 1072 591 1111 q 389 964 441 1032 q 339 970 365 970 q 163 897 233 967 q 91 722 94 827 q 163 547 94 617 q 339 475 233 477 q 420 488 382 475 q 538 408 471 437 q 684 378 605 378 q 831 410 762 378 q 951 495 901 441 q 1050 475 997 475 q 1225 547 1156 477 q 1298 722 1295 617 q 1225 897 1295 827 q 1050 970 1156 967 m 682 373 q 540 401 608 373 q 419 484 472 430 q 339 471 380 471 q 161 544 232 473 q 87 722 90 614 q 161 900 90 829 q 339 974 232 971 q 388 970 363 974 q 518 1077 442 1039 q 683 1115 594 1115 q 850 1076 772 1115 q 982 964 928 1036 q 1050 974 1016 974 q 1228 900 1157 971 q 1302 722 1299 829 q 1228 545 1299 616 q 1050 471 1157 473 q 952 490 1000 471 q 829 404 899 434 q 682 373 760 374 m 422 494 l 425 492 q 543 411 476 439 q 684 382 609 382 q 827 412 760 382 q 948 499 895 442 l 949 500 l 954 499 q 1050 479 1000 479 q 1221 550 1153 481 q 1293 722 1290 618 q 1221 893 1290 825 q 1050 964 1153 962 q 981 955 1015 964 l 978 954 l 977 956 q 847 1066 924 1027 q 683 1105 770 1105 q 521 1068 595 1105 q 393 962 446 1031 l 392 959 l 389 959 q 339 964 363 964 q 168 893 236 962 q 96 722 99 825 q 168 550 99 618 q 339 479 236 481 q 419 494 380 479 l 422 494 z "},"":{"ha":1389,"x_min":0,"x_max":1303,"o":"m 574 604 q 582 604 578 604 q 688 656 646 612 q 731 766 730 701 q 684 882 730 836 q 568 930 637 928 q 543 923 555 930 q 526 902 532 916 q 532 862 519 879 q 566 844 544 845 q 613 829 593 844 q 640 731 661 780 q 567 678 620 682 l 136 678 q 108 668 119 678 q 96 641 96 658 q 109 614 96 624 q 138 605 121 605 l 574 604 m 579 595 q 576 595 578 594 l 138 595 q 101 608 115 595 q 87 640 87 621 q 101 673 87 659 q 136 688 115 688 l 567 688 q 606 701 589 688 q 631 736 623 713 q 633 781 640 758 q 606 821 627 803 q 586 832 597 829 q 566 836 575 836 q 524 859 540 837 q 518 906 509 880 q 537 930 524 921 q 568 940 551 939 q 690 888 642 937 q 741 766 739 840 q 696 650 739 697 q 583 595 652 602 l 579 595 m 136 670 q 113 661 122 669 q 104 642 104 652 q 116 621 106 627 q 138 614 126 614 l 581 613 q 681 663 642 620 q 722 766 720 705 q 677 875 720 831 q 568 921 633 918 q 547 915 556 921 q 534 899 538 909 q 539 868 529 882 q 566 853 549 854 q 618 836 598 852 q 651 786 643 814 q 648 730 659 758 q 616 686 637 703 q 567 670 594 670 l 136 670 m 587 456 q 576 456 582 457 l 332 457 q 304 444 315 457 q 292 415 293 431 l 292 410 q 304 378 293 392 q 332 363 315 365 l 567 365 q 613 349 593 365 q 640 309 633 334 q 625 245 647 271 q 567 218 604 220 q 538 208 551 218 q 524 180 526 197 q 534 147 522 160 q 567 133 547 134 q 680 181 635 136 q 727 294 726 227 q 687 401 726 357 q 587 456 648 446 m 567 125 q 528 142 544 125 q 515 182 513 159 q 532 214 517 201 q 567 228 547 227 q 618 252 598 228 q 631 307 637 277 q 608 342 625 328 q 567 355 591 355 l 332 355 q 296 372 309 355 q 282 410 283 389 l 282 415 q 298 451 283 437 q 332 467 312 465 l 579 465 q 590 465 585 465 q 694 408 654 454 q 736 294 735 361 q 687 174 735 222 q 567 125 639 126 m 566 374 q 620 356 597 373 q 648 311 643 339 q 632 241 656 271 q 567 209 608 210 q 544 201 553 209 q 533 178 534 193 q 542 153 532 164 q 567 142 552 142 q 673 187 631 144 q 718 294 716 231 q 680 396 716 354 q 586 446 644 438 l 331 448 q 310 438 319 448 q 301 415 301 429 l 301 410 q 310 385 301 396 q 331 373 319 374 l 566 374 m 798 155 q 817 109 798 127 q 863 90 836 90 q 909 109 891 90 q 928 155 928 127 q 909 201 928 183 q 863 220 891 220 q 817 201 836 220 q 798 155 798 183 m 863 80 q 810 102 831 81 q 789 155 789 123 q 810 208 789 187 q 863 229 831 229 q 916 208 895 229 q 937 155 937 187 q 916 102 937 123 q 863 80 895 81 m 863 212 q 823 195 840 210 q 807 155 807 179 q 823 115 807 132 q 863 99 840 99 q 903 115 887 99 q 918 155 918 132 q 903 195 918 179 q 863 212 887 210 m 798 399 q 817 353 798 372 q 863 334 836 334 q 909 353 891 334 q 928 399 928 372 q 909 446 928 427 q 863 464 891 464 q 817 446 836 464 q 798 399 798 427 m 863 324 q 810 346 831 324 q 789 399 789 368 q 810 452 789 430 q 863 473 831 473 q 916 452 895 473 q 937 399 937 430 q 916 346 937 368 q 863 324 895 324 m 863 456 q 823 439 840 454 q 807 399 807 423 q 823 359 807 374 q 863 343 840 343 q 903 359 887 343 q 918 399 918 374 q 903 439 918 423 q 863 456 887 454 m 798 643 q 817 596 798 614 q 863 578 836 578 q 909 596 891 578 q 928 642 928 614 q 909 689 928 670 q 863 708 891 708 q 817 689 836 708 q 798 643 798 670 m 863 568 q 810 590 831 568 q 789 643 789 612 q 810 695 789 674 q 863 716 831 716 q 916 695 895 716 q 937 643 937 674 q 916 590 937 612 q 863 568 895 568 m 863 699 q 823 683 840 699 q 807 643 807 667 q 823 603 807 618 q 863 587 840 587 q 903 603 887 587 q 918 643 918 618 q 903 683 918 667 q 863 699 887 699 m 798 887 q 817 840 798 859 q 863 822 836 822 q 909 840 891 822 q 928 886 928 859 q 909 933 928 914 q 863 952 891 952 q 817 933 836 952 q 798 887 798 914 m 863 812 q 810 833 831 812 q 789 886 789 854 q 810 939 789 918 q 863 960 831 960 q 916 939 895 960 q 937 886 937 918 q 916 833 937 854 q 863 812 895 812 m 863 943 q 823 926 840 943 q 807 886 807 910 q 823 847 807 863 q 863 831 840 831 q 903 847 887 831 q 918 886 918 863 q 903 926 918 910 q 863 943 887 943 m 979 282 q 999 236 981 255 q 1045 217 1017 217 q 1091 236 1073 217 q 1109 283 1109 255 q 1091 329 1109 311 q 1045 347 1073 347 q 999 329 1017 347 q 979 282 981 311 m 1046 208 q 992 230 1013 209 q 971 282 971 251 q 992 335 971 313 q 1045 357 1013 357 q 1098 335 1077 357 q 1119 282 1119 313 q 1098 230 1119 251 q 1046 208 1077 209 m 1046 339 q 1006 322 1021 338 q 990 282 990 307 q 1006 242 990 258 q 1045 227 1021 227 q 1085 242 1069 227 q 1101 282 1101 258 q 1085 322 1101 307 q 1046 339 1069 338 m 979 526 q 999 479 981 498 q 1045 461 1017 461 q 1091 479 1073 461 q 1109 526 1109 498 q 1091 572 1109 553 q 1045 591 1073 591 q 999 572 1017 591 q 979 526 981 553 m 1046 452 q 992 473 1013 452 q 971 526 971 495 q 992 578 971 557 q 1045 600 1013 600 q 1098 578 1077 600 q 1119 526 1119 557 q 1098 473 1119 495 q 1046 452 1077 452 m 1046 583 q 1006 566 1021 582 q 990 526 990 551 q 1006 486 990 502 q 1045 471 1021 471 q 1085 486 1069 471 q 1101 526 1101 502 q 1085 566 1101 551 q 1046 583 1069 582 m 979 770 q 999 724 981 742 q 1045 705 1017 705 q 1091 724 1073 705 q 1109 770 1109 742 q 1091 817 1109 798 q 1045 836 1073 836 q 999 817 1017 836 q 979 770 981 798 m 1046 696 q 992 717 1013 696 q 971 770 971 738 q 992 823 971 802 q 1045 844 1013 844 q 1098 823 1077 844 q 1119 770 1119 802 q 1098 717 1119 738 q 1046 696 1077 696 m 1046 826 q 1006 810 1021 826 q 990 770 990 793 q 1006 730 990 746 q 1045 715 1021 715 q 1085 730 1069 715 q 1101 770 1101 746 q 1085 810 1101 793 q 1046 826 1069 826 m 1162 404 q 1181 357 1162 376 q 1227 339 1199 339 q 1274 357 1256 339 q 1293 404 1293 376 q 1274 451 1293 433 q 1227 469 1256 469 q 1181 451 1199 469 q 1162 404 1162 433 m 1227 330 q 1175 351 1196 330 q 1153 404 1153 373 q 1175 457 1153 435 q 1227 479 1196 479 q 1280 457 1259 479 q 1302 404 1302 435 q 1280 351 1302 373 q 1227 330 1259 330 m 1227 461 q 1187 444 1203 460 q 1172 404 1172 429 q 1187 364 1172 380 q 1227 349 1203 349 q 1267 364 1252 349 q 1283 404 1283 380 q 1267 444 1283 429 q 1227 461 1252 460 m 1162 648 q 1181 602 1162 620 q 1227 583 1199 583 q 1274 602 1256 583 q 1293 648 1293 620 q 1274 694 1293 675 q 1227 713 1256 713 q 1181 694 1199 713 q 1162 648 1162 675 m 1227 574 q 1175 595 1196 574 q 1153 648 1153 616 q 1175 701 1153 680 q 1227 722 1196 722 q 1280 701 1259 722 q 1302 648 1302 680 q 1280 595 1302 616 q 1227 574 1259 574 m 1227 704 q 1187 688 1203 704 q 1172 648 1172 673 q 1187 608 1172 624 q 1227 593 1203 593 q 1267 608 1252 593 q 1283 648 1283 624 q 1267 688 1283 673 q 1227 704 1252 704 z "},"":{"ha":1389,"x_min":0,"x_max":57,"o":"m 56 1038 l 56 -175 l 5 -175 l 5 1038 l 56 1038 m 57 -176 l 4 -176 l 4 1039 l 57 1039 l 57 -176 m 7 -174 l 54 -174 l 54 1036 l 7 1036 l 7 -174 z "},"":{"ha":1389,"x_min":-15,"x_max":319,"o":"m 11 -148 l 11 928 l 62 928 l 293 1005 l 293 954 l 62 876 l 62 -148 l 11 -148 m 319 1040 l 319 935 l 88 859 l 88 -174 l -15 -174 l -15 954 l 58 954 l 319 1040 m 58 902 l 37 902 l 37 895 l 58 902 z "},"":{"ha":1389,"x_min":-7,"x_max":537,"o":"m 16 -151 l 16 842 l 64 842 l 514 1008 l 514 962 l 64 796 l 64 -151 l 16 -151 m 537 1043 l 537 945 l 88 780 l 88 -174 l -7 -174 l -7 867 l 60 867 l 537 1043 m 60 819 l 41 819 l 41 812 l 60 819 z "},"":{"ha":1389,"x_min":-11,"x_max":534,"o":"m 14 -151 l 14 842 l 61 842 l 510 1008 l 510 960 l 61 795 l 61 677 l 274 747 l 274 701 l 61 629 l 61 -151 l 14 -151 m 533 1042 l 533 944 l 84 779 l 84 709 l 297 780 l 297 684 l 84 613 l 84 -174 l -11 -174 l -11 865 l 56 865 l 533 1042 m 57 819 l 37 819 l 37 811 l 57 819 z "},"":{"ha":1389,"x_min":-11,"x_max":533,"o":"m 14 -151 l 14 842 l 61 842 l 510 1008 l 510 960 l 61 795 l 61 677 l 510 842 l 510 795 l 61 629 l 61 511 l 273 582 l 273 534 l 61 464 l 61 -151 l 14 -151 m 533 1042 l 533 944 l 84 779 l 84 711 l 533 876 l 533 779 l 84 613 l 84 544 l 297 614 l 297 518 l 84 448 l 84 -174 l -11 -174 l -11 865 l 56 865 l 533 1042 m 57 818 l 37 818 l 37 811 l 57 818 z "},"":{"ha":1389,"x_min":-11,"x_max":533,"o":"m 14 -151 l 14 842 l 61 842 l 510 1008 l 510 960 l 61 795 l 61 677 l 510 842 l 510 795 l 61 629 l 61 511 l 273 582 l 273 534 l 61 464 l 61 -151 l 14 -151 m 533 1042 l 533 944 l 84 779 l 84 711 l 533 876 l 533 779 l 84 613 l 84 544 l 297 614 l 297 518 l 84 448 l 84 -174 l -11 -174 l -11 865 l 56 865 l 533 1042 m 57 818 l 37 818 l 37 811 l 57 818 z "},"":{"ha":1389,"x_min":-14,"x_max":536,"o":"m 11 -149 l 11 1017 l 510 1017 l 510 970 l 58 803 l 58 -149 l 11 -149 m -14 1042 l 534 1042 l 534 954 l 81 787 l 81 -174 l -14 -174 l -14 1042 m 487 994 l 34 994 l 34 819 l 487 986 l 487 994 z "},"":{"ha":1389,"x_min":-12,"x_max":533,"o":"m 12 -149 l 12 842 l 60 842 l 509 1008 l 509 960 l 60 795 l 60 677 l 509 842 l 509 795 l 60 629 l 60 511 l 509 677 l 509 629 l 60 464 l 60 -149 l 12 -149 m 532 1042 l 532 944 l 84 779 l 84 711 l 532 876 l 532 779 l 84 613 l 84 545 l 532 711 l 532 613 l 84 448 l 84 -174 l -11 -174 l -11 865 l 56 865 l 532 1042 m 56 818 l 37 818 l 37 811 l 56 818 z "},"":{"ha":1389,"x_min":-12,"x_max":533,"o":"m 12 -151 l 12 842 l 60 842 l 509 1008 l 509 960 l 60 795 l 60 677 l 509 842 l 509 795 l 60 629 l 60 511 l 509 677 l 509 629 l 60 464 l 60 346 l 273 416 l 273 369 l 60 298 l 60 -151 l 12 -151 m 532 1042 l 532 944 l 83 779 l 83 711 l 532 876 l 532 779 l 83 613 l 83 545 l 532 711 l 532 613 l 83 448 l 83 378 l 296 449 l 296 353 l 83 282 l 83 -174 l -11 -174 l -11 865 l 56 865 l 532 1042 m 56 818 l 37 818 l 37 811 l 56 818 z "},"":{"ha":1389,"x_min":-14,"x_max":536,"o":"m 11 -149 l 11 1017 l 510 1017 l 510 970 l 58 803 l 58 684 l 273 755 l 273 708 l 58 636 l 58 -149 l 11 -149 m -14 1042 l 534 1042 l 534 954 l 81 787 l 81 718 l 296 788 l 296 690 l 81 618 l 81 -174 l -14 -174 l -14 1042 m 487 993 l 34 993 l 34 819 l 487 986 l 487 993 z "},"":{"ha":1389,"x_min":-12,"x_max":533,"o":"m 12 -151 l 12 842 l 60 842 l 509 1008 l 509 960 l 60 795 l 60 677 l 509 842 l 509 795 l 60 629 l 60 511 l 509 677 l 509 629 l 60 464 l 60 346 l 509 511 l 509 464 l 60 298 l 60 -151 l 12 -151 m 532 1042 l 532 944 l 83 779 l 83 711 l 532 876 l 532 779 l 83 613 l 83 545 l 532 711 l 532 613 l 83 448 l 83 380 l 532 545 l 532 448 l 83 282 l 83 -174 l -11 -174 l -11 865 l 56 865 l 532 1042 m 56 818 l 37 818 l 37 811 l 56 818 z "},"":{"ha":1389,"x_min":-12,"x_max":533,"o":"m 12 -149 l 12 842 l 60 842 l 509 1008 l 509 960 l 60 795 l 60 677 l 509 842 l 509 795 l 60 629 l 60 511 l 509 677 l 509 629 l 60 464 l 60 346 l 509 511 l 509 464 l 60 298 l 60 180 l 273 252 l 273 205 l 60 134 l 60 -149 l 12 -149 m 532 1042 l 532 944 l 84 779 l 84 711 l 532 876 l 532 779 l 84 613 l 84 545 l 532 711 l 532 613 l 84 448 l 84 380 l 532 545 l 532 448 l 84 282 l 84 214 l 296 285 l 296 187 l 83 117 l 83 -174 l -11 -174 l -11 865 l 56 865 l 532 1042 m 56 818 l 37 818 l 37 811 l 56 818 z "},"":{"ha":1389,"x_min":0,"x_max":524,"o":"m 3 -172 l 3 1040 l 522 1040 l 522 990 l 53 817 l 53 693 l 522 867 l 522 817 l 53 644 l 53 -172 l 3 -172 z "},"":{"ha":1389,"x_min":-15,"x_max":534,"o":"m 9 -149 l 9 1017 l 510 1017 l 510 970 l 57 803 l 57 684 l 510 850 l 510 803 l 57 636 l 57 517 l 271 589 l 271 541 l 57 469 l 57 -149 l 9 -149 m -15 1042 l 533 1042 l 533 954 l 81 787 l 81 718 l 533 884 l 533 787 l 81 620 l 81 551 l 296 621 l 296 524 l 81 453 l 81 -174 l -15 -174 l -15 1042 m 486 993 l 33 993 l 33 819 l 486 986 l 486 993 z "},"":{"ha":1389,"x_min":-14,"x_max":536,"o":"m 11 -151 l 11 1017 l 510 1017 l 510 970 l 58 803 l 58 684 l 510 850 l 510 803 l 58 636 l 58 517 l 510 684 l 510 636 l 58 469 l 58 -151 l 11 -151 m -14 1042 l 534 1042 l 534 954 l 81 787 l 81 718 l 534 884 l 534 787 l 81 620 l 81 551 l 534 718 l 534 620 l 81 453 l 81 -174 l -14 -174 l -14 1042 m 487 994 l 34 994 l 34 819 l 487 986 l 487 994 z "},"":{"ha":1389,"x_min":-14,"x_max":536,"o":"m 11 -151 l 11 1017 l 510 1017 l 510 970 l 58 803 l 58 684 l 510 850 l 510 803 l 58 636 l 58 517 l 510 684 l 510 636 l 58 469 l 58 350 l 510 517 l 510 469 l 58 302 l 58 -151 l 11 -151 m -14 1042 l 534 1042 l 534 954 l 81 787 l 81 718 l 534 884 l 534 787 l 81 620 l 81 551 l 534 718 l 534 620 l 81 453 l 81 384 l 534 551 l 534 453 l 81 286 l 81 -174 l -14 -174 l -14 1042 m 487 993 l 34 993 l 34 819 l 487 986 l 487 993 z "},"":{"ha":1389,"x_min":-14,"x_max":536,"o":"m 11 -151 l 11 1017 l 510 1017 l 510 970 l 58 803 l 58 684 l 510 850 l 510 803 l 58 636 l 58 517 l 510 684 l 510 636 l 58 469 l 58 350 l 273 422 l 273 374 l 58 302 l 58 -151 l 11 -151 m -14 1042 l 534 1042 l 534 954 l 81 787 l 81 718 l 534 884 l 534 787 l 81 620 l 81 551 l 534 718 l 534 620 l 81 453 l 81 384 l 296 454 l 296 357 l 81 285 l 81 -174 l -14 -174 l -14 1042 m 487 994 l 34 994 l 34 819 l 487 986 l 487 994 z "},"":{"ha":1389,"x_min":-14,"x_max":536,"o":"m 11 -151 l 11 1017 l 510 1017 l 510 970 l 58 803 l 58 684 l 510 850 l 510 803 l 58 636 l 58 517 l 510 684 l 510 636 l 58 469 l 58 350 l 510 517 l 510 469 l 58 302 l 58 183 l 273 255 l 273 208 l 58 136 l 58 -151 l 11 -151 m -14 1042 l 534 1042 l 534 954 l 81 787 l 81 718 l 534 884 l 534 787 l 81 620 l 81 551 l 534 718 l 534 620 l 81 453 l 81 384 l 534 551 l 534 453 l 81 286 l 81 217 l 296 288 l 296 190 l 81 119 l 81 -174 l -14 -174 l -14 1042 m 487 993 l 34 993 l 34 819 l 487 986 l 487 993 z "},"":{"ha":1389,"x_min":-8,"x_max":541,"o":"m 16 -149 l 16 1017 l 515 1017 l 515 970 l 64 803 l 64 684 l 515 850 l 515 803 l 64 636 l 64 517 l 515 684 l 515 636 l 64 469 l 64 351 l 515 517 l 515 469 l 64 302 l 64 184 l 515 351 l 515 302 l 64 137 l 64 -149 l 16 -149 m -8 1042 l 540 1042 l 540 954 l 87 787 l 87 718 l 540 884 l 540 787 l 87 620 l 87 552 l 540 719 l 540 620 l 87 453 l 87 385 l 540 552 l 540 453 l 87 286 l 87 218 l 540 385 l 540 286 l 87 119 l 87 -174 l -8 -174 l -8 1042 m 492 994 l 39 994 l 39 819 l 492 986 l 492 994 z "},"":{"ha":1389,"x_min":-14,"x_max":534,"o":"m 11 -149 l 11 1017 l 510 1017 l 510 970 l 58 803 l 510 803 l 510 755 l 58 589 l 58 -149 l 11 -149 m -14 1042 l 534 1042 l 534 954 l 191 827 l 534 827 l 534 739 l 81 572 l 81 -174 l -14 -174 l -14 1042 m 487 993 l 34 993 l 34 605 l 487 772 l 487 779 l 58 779 l 50 825 l 487 986 l 487 993 z "},"":{"ha":1389,"x_min":0,"x_max":564,"o":"m 39 -149 l 39 1017 l 540 1017 l 540 970 l 87 803 l 87 684 l 540 850 l 540 803 l 87 636 l 87 517 l 540 684 l 540 636 l 87 469 l 87 350 l 540 517 l 540 469 l 87 302 l 87 184 l 540 350 l 540 302 l 87 136 l 87 18 l 301 88 l 301 41 l 87 -31 l 87 -149 l 39 -149 m 15 1042 l 563 1042 l 563 954 l 111 787 l 111 718 l 563 884 l 563 787 l 111 620 l 111 552 l 563 718 l 563 620 l 111 453 l 111 385 l 563 552 l 563 453 l 111 286 l 111 218 l 563 385 l 563 286 l 111 119 l 111 50 l 326 122 l 326 24 l 111 -47 l 111 -174 l 15 -174 l 15 1042 m 515 993 l 64 993 l 64 819 l 515 986 l 515 993 z "}}}
